<?xml version="1.0" encoding="utf-8"?>
<!-- Generator: Adobe Illustrator 26.0.1, SVG Export Plug-In . SVG Version: 6.00 Build 0)  -->
<svg version="1.1" id="Layer_1" xmlns="http://www.w3.org/2000/svg" xmlns:xlink="http://www.w3.org/1999/xlink" x="0px" y="0px"
	 viewBox="0 0 40 40" style="enable-background:new 0 0 40 40;" xml:space="preserve">
<style type="text/css">
	.st0{fill:#FF274D;}
	.st1{fill:#FFFFFF;}
	.st2{fill:#571DAE;}
</style>
<g>
	<g id="a">
	</g>
	<g id="b">
		<g id="c">
			<g>
				<polygon class="st0" points="36.5,27.6 22.4,34.6 22.4,21.9 36.5,14.9 				"/>
				<path class="st1" d="M24.4,24.9c-0.2,0-0.4-0.1-0.4-0.3c-0.1-0.3,0-0.6,0.2-0.7l6-3c0.2-0.1,0.5,0,0.6,0.2
					c0.1,0.3,0,0.6-0.2,0.7l-6,3C24.6,24.9,24.5,24.9,24.4,24.9z"/>
				<path class="st1" d="M24.4,31c-0.2,0-0.4-0.1-0.4-0.3c-0.1-0.3,0-0.6,0.2-0.7l6-3c0.2-0.1,0.5,0,0.6,0.2c0.1,0.3,0,0.6-0.2,0.7
					l-6,3C24.6,31,24.5,31,24.4,31z"/>
				<polygon class="st1" points="35.1,22.1 32.3,23.5 32.3,20 35.1,18.6 				"/>
				<path class="st1" d="M24.4,28c-0.2,0-0.4-0.1-0.4-0.3c-0.1-0.3,0-0.6,0.2-0.7l6-3c0.2-0.1,0.5,0,0.6,0.2c0.1,0.3,0,0.6-0.2,0.7
					l-6,3C24.6,27.9,24.5,28,24.4,28z"/>
			</g>
			<path class="st2" d="M40,10.3C40,10.2,39.9,10.2,40,10.3c-0.1-0.1-0.1-0.2-0.1-0.3c0,0,0-0.1-0.1-0.1c0-0.1-0.1-0.1-0.1-0.1
				c0,0-0.1-0.1-0.1-0.1c0,0,0,0-0.1-0.1c0,0,0,0-0.1,0c0,0,0,0,0,0l-19-9.5c-0.3-0.1-0.6-0.1-0.9,0l-19,9.5c0,0,0,0,0,0
				c0,0,0,0-0.1,0c0,0,0,0-0.1,0.1c0,0-0.1,0.1-0.1,0.1c0,0-0.1,0.1-0.1,0.1c0,0,0,0.1-0.1,0.1c0,0.1-0.1,0.1-0.1,0.2
				c0,0,0,0.1,0,0.1c0,0.1,0,0.2,0,0.3v18.9c0,0.4,0.2,0.8,0.6,1l19,9.5c0,0,0.1,0,0.1,0c0,0,0,0,0.1,0c0.1,0,0.2,0,0.3,0
				s0.2,0,0.3,0c0,0,0,0,0.1,0c0,0,0.1,0,0.1,0l19-9.5c0.4-0.2,0.6-0.6,0.6-1V10.5C40,10.4,40,10.3,40,10.3L40,10.3z M20,18.8
				l-7.1-3.5l16.2-8.4l7.4,3.7L20,18.8L20,18.8z M20,2.3l6.7,3.3l-16.2,8.4l-7-3.5L20,2.3L20,2.3z M2.1,12.3l9,4.5l7.9,3.9v16.5
				L2.1,28.8V12.3z M37.9,28.8L21,37.2V20.7l16.9-8.4V28.8z"/>
		</g>
	</g>
</g>
</svg>
