<?xml version="1.0" encoding="utf-8"?>
<!-- Generator: Adobe Illustrator 26.0.1, SVG Export Plug-In . SVG Version: 6.00 Build 0)  -->
<svg version="1.1" id="Layer_1" xmlns="http://www.w3.org/2000/svg" xmlns:xlink="http://www.w3.org/1999/xlink" x="0px" y="0px"
	 viewBox="0 0 60 60" style="enable-background:new 0 0 60 60;" xml:space="preserve">
<style type="text/css">
	.st0{fill:#FF274D;}
	.st1{fill:#FFFFFF;}
</style>
<path class="st0" d="M30,60c16.6,0,30-13.4,30-30C60,13.4,46.6,0,30,0C13.4,0,0,13.4,0,30C0,46.6,13.4,60,30,60z"/>
<path class="st1" d="M30,54.8c-4.9,0-9.7-1.5-13.8-4.2c-4.1-2.7-7.3-6.6-9.1-11.1C5.2,35,4.7,30,5.6,25.2s3.3-9.2,6.8-12.7
	c3.5-3.5,7.9-5.8,12.7-6.8c4.8-1,9.8-0.5,14.3,1.4c4.5,1.9,8.4,5.1,11.1,9.1c2.7,4.1,4.2,8.9,4.2,13.8c0,6.6-2.6,12.9-7.3,17.6
	C42.9,52.2,36.6,54.8,30,54.8z M30,7.5c-4.5,0-8.8,1.3-12.5,3.8c-3.7,2.5-6.6,6-8.3,10.1C7.5,25.5,7,30,7.9,34.4
	c0.9,4.4,3,8.4,6.2,11.5c3.2,3.2,7.2,5.3,11.5,6.2c4.4,0.9,8.9,0.4,13-1.3c4.1-1.7,7.6-4.6,10.1-8.3c2.5-3.7,3.8-8.1,3.8-12.5
	c0-6-2.4-11.7-6.6-15.9C41.7,9.8,36,7.5,30,7.5z"/>
<g>
	<path class="st1" d="M30,22.7c-0.5-1.1-0.5-1.3-0.4-2.7c0-0.5,0.1-1.4,0.1-2.6c0.1-2.9-1.2-4.1-2.2-4.6c-0.7-0.8-1.7-1.4-2.7-1.5
		c-0.9-0.2-1.7-0.1-2.5,0.2c-0.8,0.3-1.4,0.9-1.5,1.7c-0.1,0.8,0.2,1.6,0.8,2.1c0.7,0.6,1.5,1,2.3,1.1c0.7,0.1,1.5,0.1,2.2-0.1
		c0.6,0.7,0.8,1.8,0.9,2.9c0.2,1.5,0.5,3.1,1.7,4.2l0.1,0.1l0,0c0.1,0.1,0.3,0.1,0.4,0.1c0.2,0,0.3-0.1,0.5-0.1
		C30,23.4,30.1,23,30,22.7z M22.9,13c0.5-0.2,1.1-0.2,1.6-0.1c0.7,0.1,1.3,0.4,1.8,1c0.1,0.1,0.2,0.3,0.4,0.3c1,0.4,1.4,1.6,1.5,2.6
		c-0.2-0.8-0.7-1.5-1.4-2c-0.1-0.1-0.3-0.1-0.5-0.1c-0.1,0-0.2,0-0.4,0.1c-0.6,0.2-1.2,0.3-1.8,0.2l0,0c-0.5-0.1-1.1-0.3-1.5-0.7
		c-0.1-0.1-0.4-0.4-0.4-0.7C22.3,13.3,22.5,13.1,22.9,13z"/>
	<path class="st1" d="M29.5,48.8c6.1,0,11-4.9,11-11V23.4l0.5-0.2c0.8-0.2,1.3-1,1.4-1.8c0-1.2-0.6-2.4-1.5-3.2l-0.3-0.3
		c-0.4-0.3-0.7-0.7-1-1.1c-0.1-0.2-0.3-0.5-0.4-0.8c-0.8-1.5-1.5-2.6-3-2.6c-0.5,0-0.9,0.7-1.2,1.3c-0.9,1.8-1.6,5.2-0.5,6.6
		l0.2,0.2l0.2,0.2v16.2c0,2.9-2.3,5.2-5.2,5.2c-2.9,0-5.2-2.3-5.2-5.2v-7.3l0.5-0.2c0.7-0.3,1.1-0.9,1.1-1.6c0-1.6-0.9-2.6-1.7-3.4
		c-0.4-0.3-0.7-0.7-1-1.1c-0.1-0.2-0.3-0.5-0.4-0.8c-0.7-1.4-1.4-2.5-2.9-2.5c-0.5,0-0.9,0.7-1.2,1.2c-0.9,1.7-1.5,5-0.5,6.3
		l0.1,0.1l0.2,0.2v9C18.5,43.9,23.4,48.8,29.5,48.8C29.5,48.8,29.5,48.8,29.5,48.8z"/>
</g>
</svg>
