<?xml version="1.0" encoding="utf-8"?>
<!-- Generator: Adobe Illustrator 26.0.1, SVG Export Plug-In . SVG Version: 6.00 Build 0)  -->
<svg version="1.1" id="Layer_1" xmlns="http://www.w3.org/2000/svg" xmlns:xlink="http://www.w3.org/1999/xlink" x="0px" y="0px"
	 viewBox="0 0 36 32" style="enable-background:new 0 0 36 32;" xml:space="preserve">
<style type="text/css">
	.st0{fill:none;}
	.st1{fill:#571DAE;}
	.st2{fill:#FF274D;}
</style>
<rect class="st0" width="36" height="32"/>
<g>
	<path class="st1" d="M31.3,11.5C30.5,5.2,25,0.2,18.4,0C15-0.1,11.7,1,9.2,3.2C6.6,5.3,5,8.3,4.7,11.5c-1.4,0.2-2.6,0.9-3.5,2
		c-0.9,1-1.3,2.4-1.2,3.7s0.7,2.6,1.8,3.5c1,0.9,2.4,1.4,3.8,1.4c0.5,0,1-0.2,1.4-0.5c0.4-0.3,0.6-0.8,0.6-1.3v-6.9
		c0-0.3-0.1-0.6-0.2-0.9c-0.2-0.3-0.4-0.5-0.7-0.7c0.3-2.7,1.7-5.3,3.8-7.1c2.2-1.8,5-2.8,7.9-2.7c5.7,0.1,10.4,4.4,11,9.8
		c-0.3,0.2-0.5,0.4-0.6,0.7c-0.2,0.3-0.2,0.6-0.2,0.9v6.9c0,0.3,0.1,0.6,0.3,0.9c0.2,0.3,0.4,0.5,0.7,0.7v1.7c0,1.3-0.5,2.5-1.4,3.3
		c-0.9,0.9-2.2,1.4-3.5,1.4h-3.2c0.2,0.6,0.2,1.2,0,1.9h3.2c1.8,0,3.6-0.7,4.9-1.9c1.3-1.2,2-2.9,2-4.6v-1.5
		c1.3-0.2,2.5-0.9,3.3-1.8c0.8-1,1.3-2.2,1.3-3.4c0-1.3-0.5-2.5-1.3-3.4C33.8,12.3,32.6,11.6,31.3,11.5L31.3,11.5z"/>
	<path class="st2" d="M17.1,32c1.7,0,3.1-1.3,3.1-3s-1.4-3-3.1-3c-1.7,0-3.1,1.3-3.1,3S15.3,32,17.1,32z"/>
</g>
</svg>
