<?xml version="1.0" encoding="utf-8"?>
<!-- Generator: Adobe Illustrator 26.0.1, SVG Export Plug-In . SVG Version: 6.00 Build 0)  -->
<svg version="1.1" id="Layer_1" xmlns="http://www.w3.org/2000/svg" xmlns:xlink="http://www.w3.org/1999/xlink" x="0px" y="0px"
	 viewBox="0 0 32 32" style="enable-background:new 0 0 32 32;" xml:space="preserve">
<style type="text/css">
	.st0{fill:#D01E4F;}
</style>
<path class="st0" d="M15.7,22.2c3.7,0,6.8-2.9,6.8-6.5v-5.4l0.3-0.1c0.5-0.1,0.8-0.6,0.8-1.1c0-0.7-0.4-1.4-0.9-1.9l-0.2-0.2
	c-0.2-0.2-0.5-0.4-0.6-0.7c-0.1-0.1-0.2-0.3-0.3-0.5c-0.5-0.9-0.9-1.5-1.9-1.5c-0.3,0-0.6,0.4-0.7,0.8c-0.5,1.1-1,3.1-0.3,3.9
	l0.1,0.1l0.1,0.1v6.4c0,1.7-1.4,3.1-3.2,3.1c-1.8,0-3.2-1.4-3.2-3.1v-4.3l0.3-0.1c0.4-0.2,0.7-0.5,0.7-1c0-1-0.6-1.5-1.1-2
	c-0.2-0.2-0.4-0.4-0.6-0.6c-0.1-0.1-0.2-0.3-0.3-0.5C11,6.4,10.6,5.8,9.7,5.8C9.4,5.8,9.2,6.2,9,6.5c-0.5,1-0.9,2.9-0.3,3.7l0.1,0.1
	l0.1,0.1v5.3C8.9,19.3,11.9,22.2,15.7,22.2C15.7,22.2,15.7,22.2,15.7,22.2z"/>
<g>
	<path class="st0" d="M27.2,32H4.8c-2.1,0-3.9-1.7-3.9-3.9V3.9C0.9,1.7,2.7,0,4.8,0h22.4c2.1,0,3.9,1.7,3.9,3.9v24.3
		C31.1,30.3,29.3,32,27.2,32z M4.8,2c-1,0-1.9,0.8-1.9,1.9v24.3c0,1,0.8,1.9,1.9,1.9h22.4c1,0,1.9-0.8,1.9-1.9V3.9
		c0-1-0.8-1.9-1.9-1.9H4.8z"/>
</g>
</svg>
