<?xml version="1.0" encoding="utf-8"?>
<!-- Generator: Adobe Illustrator 26.0.1, SVG Export Plug-In . SVG Version: 6.00 Build 0)  -->
<svg version="1.1" id="Layer_1" xmlns="http://www.w3.org/2000/svg" xmlns:xlink="http://www.w3.org/1999/xlink" x="0px" y="0px"
	 viewBox="0 0 600 333.3" style="enable-background:new 0 0 600 333.3;" xml:space="preserve">
<style type="text/css">
	.st0{fill-rule:evenodd;clip-rule:evenodd;fill:#E6E6FC;}
	.st1{fill-rule:evenodd;clip-rule:evenodd;}
	.st2{fill-rule:evenodd;clip-rule:evenodd;fill:#4A4AF4;}
</style>
<path class="st0" d="M45.6,0h508.8C579.6,0,600,20.4,600,45.6v242.2c0,25.2-20.4,45.6-45.6,45.6H45.6C20.4,333.3,0,312.9,0,287.7
	V45.6C0,20.4,20.4,0,45.6,0z"/>
<g>
	<g>
		<path class="st1" d="M88.5,179.5c-13.7,0-29.5,6.5-38.1,13.3l7.9,16.4c6.9-6.3,18-11.6,28.1-11.6c9.6,0,14.8,3.1,14.8,9.6
			c0,4.4-3.5,6.5-10,7.4c-24.7,3.1-44,9.9-44,28.9c0,15,10.8,24.2,27.4,24.2c12,0,22.6-6.6,27.7-15.4v12.9h22.2v-54.3
			C124.4,188.6,108.8,179.5,88.5,179.5z M80.1,250.2c-6.3,0-9.4-3-9.4-8.1c0-9.4,10.5-12.6,29.7-14.6
			C100.6,240.1,92,250.2,80.1,250.2z"/>
		<path class="st1" d="M334.2,195.9v-14h-22.2v83.3h23.8v-40.1c0-19.1,11.5-24.7,19.6-24.7c3.1,0,7.4,1,10.2,3l4.4-22
			c-3.6-1.6-7.5-1.9-10.6-1.9C347,179.5,339.2,184.9,334.2,195.9L334.2,195.9z"/>
		<path class="st1" d="M480.3,179.5c-12.6,0-22,7.5-27,14.6c-4.6-9.3-14.1-14.6-25.8-14.6c-12.6,0-21.3,7-25.4,15v-12.6h-23v83.3
			h23.8v-42.9c0-15.4,8.1-22.7,15.6-22.7c6.8,0,13.1,4.4,13.1,15.7v49.9h23.9v-42.9c0-15.6,7.9-22.7,15.7-22.7
			c6.3,0,12.9,4.6,12.9,15.6v50.1h23.8v-57.6C508.1,188.9,495.6,179.5,480.3,179.5L480.3,179.5z"/>
		<path class="st1" d="M208.5,175.7v6.2h-36.2v-8.5c0-11,6.3-14.1,11.7-14.1c3.1,0,7.3,0.7,10.6,2.7l7.4-16.8
			c-4.4-2.5-11.5-4.8-21-4.8c-15.2,0-32.5,8.6-32.5,35.5v6.2h-13.8v18.4h13.8v64.8h23.8v-64.9h36.2v64.9h23.8v-64.9H254v-18.4h-21.6
			v-8.5c0-11,6.3-14.1,11.7-14.1c6,0,10.6,2.7,10.6,2.7l7.4-16.8c0,0-7.5-4.8-21-4.8C225.9,140.2,208.5,148.8,208.5,175.7z"/>
		<path class="st1" d="M268.1,181.9H292v83.3h-23.8V181.9z"/>
	</g>
	<path class="st2" d="M406.9,65.7c-64.3,0-121.6,44.6-137.8,102h23.3C306,125,352.1,87.5,406.9,87.5c66.7,0,124.3,50.8,124.3,129.9
		c0,17.8-2.3,33.7-6.6,47.9h22.6l0.2-0.7c3.7-14.6,5.6-30.5,5.6-47.2C553,129.2,488.8,65.7,406.9,65.7"/>
</g>
</svg>
