<svg width="1332.6" height="838.5" xmlns="http://www.w3.org/2000/svg" xml:space="preserve" version="1.1">

 <g>
  <title>Layer 1</title>
  <g id="svg_15">
   <g stroke="null" id="svg_1">
    <rect stroke="null" id="svg_2" fill="#B2FCE4" height="838.5" width="1330.12631" class="st0" y="2.63158" x="-0.00004"/>
   </g>
   <g id="svg_3">
    <path id="svg_4" d="m1228.8421,356.13158l-34.6,-19.8l-35.1,-20.1c-23.2,-13.3 -52.2,3.4 -52.2,30.2l0,4.5c0,2.5 1.3,4.8 3.5,6l16.3,9.3c4.5,2.6 10.1,-0.7 10.1,-5.9l0,-10.7c0,-5.3 5.7,-8.6 10.3,-6l32,18.4l31.9,18.3c4.6,2.6 4.6,9.3 0,11.9l-31.9,18.3l-32,18.4c-4.6,2.6 -10.3,-0.7 -10.3,-6l0,-5.3c0,-26.8 -29,-43.6 -52.2,-30.2l-35.1,20.1l-34.6,19.8c-23.3,13.4 -23.3,47.1 0,60.5l34.6,19.8l35.1,20.1c23.2,13.3 52.2,-3.4 52.2,-30.2l0,-4.5c0,-2.5 -1.3,-4.8 -3.5,-6l-16.3,-9.3c-4.5,-2.6 -10.1,0.7 -10.1,5.9l0,10.7c0,5.3 -5.7,8.6 -10.3,6l-32,-18.4l-31.9,-18.3c-4.6,-2.6 -4.6,-9.3 0,-11.9l31.9,-18.3l32,-18.4c4.6,-2.6 10.3,0.7 10.3,6l0,5.3c0,26.8 29,43.6 52.2,30.2l35.1,-20.1l34.6,-19.8c23.3,-13.5 23.3,-47.1 0,-60.5z"/>
    <g id="svg_5">
     <path id="svg_6" d="m1001.8421,362.73158l-81,167.3l-33.6,0l30.3,-62.5l-47.7,-104.8l34.5,0l30.6,70.2l33.4,-70.2l33.5,0z"/>
    </g>
    <g id="svg_7">
     <g id="svg_8">
      <path id="svg_9" d="m191.9421,422.13158c0,-20 -14.5,-34 -32.3,-34s-32.3,14.3 -32.3,34c0,19.5 14.5,34 32.3,34s32.3,-14 32.3,-34m0.3,59.4l0,-15.4c-8.8,10.7 -21.9,17.3 -37.5,17.3c-32.6,0 -57.3,-26.1 -57.3,-61.3c0,-34.9 25.7,-61.5 58,-61.5c15.2,0 28,6.7 36.8,17.1l0,-15l29.2,0l0,118.8l-29.2,0z"/>
      <path id="svg_10" d="m363.4421,455.13158c-10.2,0 -13.1,-3.8 -13.1,-13.8l0,-52.7l18.8,0l0,-25.9l-18.8,0l0,-29l-29.9,0l0,29l-38.6,0l0,-11.8c0,-10 3.8,-13.8 14.3,-13.8l6.6,0l0,-23l-14.4,0c-24.7,0 -36.4,8.1 -36.4,32.8l0,15.9l-16.6,0l0,25.8l16.6,0l0,92.9l29.9,0l0,-92.9l38.6,0l0,58.2c0,24.2 9.3,34.7 33.5,34.7l15.4,0l0,-26.4l-5.9,0z"/>
      <path id="svg_11" d="m470.8421,411.43158c-2.1,-15.4 -14.7,-24.7 -29.5,-24.7c-14.7,0 -26.9,9 -29.9,24.7l59.4,0zm-59.7,18.5c2.1,17.6 14.7,27.6 30.7,27.6c12.6,0 22.3,-5.9 28,-15.4l30.7,0c-7.1,25.2 -29.7,41.3 -59.4,41.3c-35.9,0 -61.1,-25.2 -61.1,-61.1c0,-35.9 26.6,-61.8 61.8,-61.8c35.4,0 61.1,26.1 61.1,61.8c0,2.6 -0.2,5.2 -0.7,7.6l-91.1,0z"/>
      <path id="svg_12" d="m693.3421,422.13158c0,-19.2 -14.5,-34 -32.3,-34c-17.8,0 -32.3,14.3 -32.3,34c0,19.5 14.5,34 32.3,34c17.8,0 32.3,-14.7 32.3,-34m-94.1,107.9l0,-167.3l29.2,0l0,15.4c8.8,-10.9 21.9,-17.6 37.5,-17.6c32.1,0 57.3,26.4 57.3,61.3c0,34.9 -25.7,61.5 -58,61.5c-15,0 -27.3,-5.9 -35.9,-15.9l0,62.5l-30.1,0l0,0.1z"/>
      <path id="svg_13" d="m828.5421,422.13158c0,-20 -14.5,-34 -32.3,-34c-17.8,0 -32.3,14.3 -32.3,34c0,19.5 14.5,34 32.3,34c17.8,0 32.3,-14 32.3,-34m0.3,59.4l0,-15.4c-8.8,10.7 -21.9,17.3 -37.5,17.3c-32.6,0 -57.3,-26.1 -57.3,-61.3c0,-34.9 25.7,-61.5 58,-61.5c15.2,0 28,6.7 36.8,17.1l0,-15l29.2,0l0,118.8l-29.2,0z"/>
      <path id="svg_14" d="m546.5421,374.33158c0,0 7.4,-13.8 25.7,-13.8c7.8,0 12.8,2.7 12.8,2.7l0,30.3c0,0 -11,-6.8 -21.1,-5.4c-10.1,1.4 -16.5,10.6 -16.5,23l0,70.3l-30.2,0l0,-118.7l29.2,0l0,11.6l0.1,0z"/>
     </g>
    </g>
   </g>
  </g>
 </g>
</svg>