<?xml version="1.0" encoding="utf-8"?>
<!-- Generator: Adobe Illustrator 26.0.1, SVG Export Plug-In . SVG Version: 6.00 Build 0)  -->
<svg version="1.1" id="Layer_1" xmlns="http://www.w3.org/2000/svg" xmlns:xlink="http://www.w3.org/1999/xlink" x="0px" y="0px"
	 viewBox="0 0 600 333.3" style="enable-background:new 0 0 600 333.3;" xml:space="preserve">
<style type="text/css">
	.st0{fill-rule:evenodd;clip-rule:evenodd;fill:#FFFFFF;}
	.st1{fill-rule:evenodd;clip-rule:evenodd;fill:#333E48;}
	.st2{fill-rule:evenodd;clip-rule:evenodd;fill:#F8981C;}
</style>
<path class="st0" d="M46.1,0.4h508.8c25.2,0,45.6,20.4,45.6,45.6v242.2c0,25.2-20.4,45.6-45.6,45.6H46.1
	c-25.2,0-45.6-20.4-45.6-45.6V46C0.5,20.8,20.9,0.4,46.1,0.4z"/>
<path class="st1" d="M211,80.3c-8.5,0-16.6,2.8-24.1,8.5v51.7c7.7,5.9,15.6,8.9,23.8,8.9c16.5,0,24.8-11.5,24.8-34.5
	C235.4,91.9,227.3,80.3,211,80.3L211,80.3z M185.6,77.9c4.3-3.9,9.2-7,14.6-9.3c5-2.1,10.4-3.1,15.8-3.2c5.8,0,11,1.1,15.7,3.3
	c4.7,2.2,8.6,5.4,11.9,9.6c3.3,4.2,5.7,9.3,7.5,15.3c1.7,6,2.6,12.8,2.6,20.3c0,7.7-0.9,14.6-2.8,20.8s-4.5,11.4-7.8,15.7
	c-3.3,4.2-7.4,7.7-12.2,10.1c-4.8,2.4-10.1,3.6-16,3.6c-10.8,0-20.1-3.6-27.9-10.9v43.3c0,2.5-1.2,3.7-3.6,3.7h-10.6
	c-2.4,0-3.6-1.2-3.6-3.7V72c0-2.5,1.2-3.7,3.6-3.7h7.9c2.4,0,3.8,1.2,4.2,3.7L185.6,77.9L185.6,77.9z M305.1,144.5
	c4.2,0,8.4-0.8,12.3-2.2c4.4-1.6,8.6-3.8,12.3-6.5v-17.5c-3.1-0.7-6.2-1.3-9.4-1.6c-3.2-0.4-6.4-0.6-9.6-0.6
	c-13.5,0-20.2,5-20.2,14.9c0,4.4,1.2,7.7,3.8,10C296.9,143.3,300.5,144.5,305.1,144.5 M284.2,83l-1.4,0.4c-0.5,0.2-1,0.3-1.5,0.3
	c-1.5,0-2.3-1-2.3-3.1v-4.6c0-1.6,0.3-2.7,0.7-3.3c0.5-0.6,1.4-1.2,2.9-1.8c3.8-1.6,8.5-2.9,14.1-3.9c5.5-1,11.2-1.4,16.8-1.5
	c11.3,0,19.6,2.2,25,6.7c5.4,4.5,8,11.4,8,20.8v58.8c0,2.3-1.2,3.4-3.6,3.4h-7.7c-2.3,0-3.6-1.1-3.9-3.3l-0.9-5.7
	c-4.2,3.5-9,6.3-14.2,8.3c-4.9,1.9-10.2,2.9-15.5,2.9c-8.6,0-15.4-2.3-20.4-7c-5-4.6-7.5-10.8-7.5-18.6c0-8.4,3.1-15,9.3-20
	c6.2-5,14.5-7.5,25-7.5c6.7,0,14.2,1,22.5,2.9V95.9c0-6.2-1.4-10.5-4.3-13.1c-2.9-2.5-7.9-3.8-15-3.8C302.2,79,293.4,80.3,284.2,83
	 M398.8,179.2c-3.1,8.4-6.7,14.4-10.8,18c-4.1,3.6-9.4,5.5-16,5.5c-3.3,0-6.6-0.4-9.8-1.3c-1.3-0.4-2.2-0.9-2.8-1.7
	c-0.6-0.8-0.9-2-0.9-3.8v-4.7c0-2.3,0.9-3.5,2.6-3.5c0.5,0,1.4,0.1,2.6,0.3c1.2,0.3,2.7,0.4,4.6,0.4c4.4,0,7.8-1.1,10.2-3.3
	c2.4-2.2,4.6-6.2,6.5-12l3.3-9.3l-33.3-86.7c-0.8-2.1-1.2-3.5-1.2-4.4c0-1.4,0.8-2.2,2.4-2.2h10.4c1.8,0,3.1,0.3,3.8,0.9
	c0.7,0.6,1.4,1.9,2.1,4l24.2,70.6L420,75.6c0.7-2.1,1.4-3.4,2.1-4c0.7-0.6,1.9-0.9,3.8-0.9h9.7c1.6,0,2.4,0.7,2.4,2.2
	c0,0.9-0.4,2.3-1.2,4.4L398.8,179.2L398.8,179.2z"/>
<g>
	<path class="st2" d="M447.1,237.3c-38.9,28.3-95.3,43.3-143.8,43.3c-68.1,0-129.3-24.8-175.7-66.1c-3.6-3.2-0.4-7.7,4-5.1
		c50,28.7,111.9,46,175.8,46c43.1,0,90.5-8.8,134.1-27C448.1,225.6,453.6,232.6,447.1,237.3"/>
	<path class="st2" d="M462.2,226.3c-4.9-6.4-32.6-3-45-1.5c-3.8,0.4-4.3-2.9-0.9-5.3c22.1-15.8,58.2-11.2,62.4-5.9
		c4.2,5.3-1.1,42.1-21.8,59.7c-3.2,2.7-6.2,1.3-4.8-2.3C456.7,259.2,467.1,232.8,462.2,226.3"/>
</g>
</svg>
