<?xml version="1.0" encoding="utf-8"?>
<!-- Generator: Adobe Illustrator 26.0.1, SVG Export Plug-In . SVG Version: 6.00 Build 0)  -->
<svg version="1.1" id="Layer_1" xmlns="http://www.w3.org/2000/svg" xmlns:xlink="http://www.w3.org/1999/xlink" x="0px" y="0px"
	 viewBox="0 0 600 333.3" style="enable-background:new 0 0 600 333.3;" xml:space="preserve">
<style type="text/css">
	.st0{fill-rule:evenodd;clip-rule:evenodd;fill:#FFFFFF;}
	.st1{fill:#5F6368;}
	.st2{fill:#4285F4;}
	.st3{fill:#34A853;}
	.st4{fill:#FBBC04;}
	.st5{fill:#EA4335;}
</style>
<path class="st0" d="M46.1,0.4h508.8c25.2,0,45.6,20.4,45.6,45.6v242.2c0,25.2-20.4,45.6-45.6,45.6H46.1
	c-25.2,0-45.6-20.4-45.6-45.6V46C0.5,20.8,20.9,0.4,46.1,0.4z"/>
<g>
	<path class="st1" d="M286.6,164.2v61.1h-19.2V74.4h51.7c12.4-0.4,24.4,4.3,33.3,13.3c9,8.1,14.1,19.7,14.1,32.1
		c0.4,12.4-4.7,23.9-14.1,32.1c-9,8.5-20.1,12.8-33.3,12.8L286.6,164.2L286.6,164.2z M286.6,92.8v53h32.5c7.3,0.4,14.1-2.6,19.2-7.7
		c10.3-9.8,10.3-26.1,0.4-36.3l-0.4-0.4c-5.1-5.1-12-8.1-19.2-8.1L286.6,92.8L286.6,92.8z"/>
	<path class="st1" d="M410.5,118.9c14.5,0,25.6,3.8,34.2,11.5c8.1,7.7,12.4,18.4,12.4,31.6v63.7h-18.4v-14.5h-0.9
		c-8.1,12-18.8,18-32.1,18c-11.5,0-20.9-3.4-28.6-10.3c-7.3-6.4-11.5-15.4-11.5-25.2c0-10.7,3.8-19.2,12-25.6
		c8.1-6.4,18.8-9.4,32.5-9.4c11.5,0,20.9,2.1,28.6,6.4v-4.3c0-6.8-3-12.8-8.1-17.1c-5.1-4.7-12-7.3-18.8-7.3
		c-10.7,0-19.7,4.7-25.6,13.7l-17.1-10.7C378.5,125.3,392.2,118.9,410.5,118.9z M385.3,194.1c0,5.1,2.6,9.8,6.4,12.8
		c4.3,3.4,9.8,5.1,15,5.1c8.1,0,16.2-3.4,21.8-9c6.4-6,9.8-13.3,9.8-21.4c-6-4.7-14.5-7.3-25.2-7.3c-7.7,0-14.5,1.7-19.7,5.6
		C388.3,183.4,385.3,188.1,385.3,194.1L385.3,194.1z"/>
	<path class="st1" d="M564,122.3l-65,149.2h-20.1l23.9-52.2l-42.7-97h20.9l30.8,74.4h0.4l29.9-74.4H564z"/>
	<path class="st2" d="M207.9,151c0-6-0.4-12-1.7-17.5h-81.6v33.3h47c-2.1,10.7-8.1,20.5-17.5,26.5v21.8h28.2
		C198.5,200.1,207.9,177.5,207.9,151z"/>
	<path class="st3" d="M124.6,236c23.5,0,43.2-7.7,57.7-20.9l-28.2-21.8c-7.7,5.1-18,8.1-29.5,8.1c-22.7,0-41.9-15.4-48.7-35.9H46.8
		v22.7C61.3,217.6,91.6,236,124.6,236z"/>
	<path class="st4" d="M75.4,165.9c-3.8-10.7-3.8-22.7,0-33.3v-22.2H46.3c-12.4,24.4-12.4,53.4,0,78.2L75.4,165.9z"/>
	<path class="st5" d="M124.6,96.7c12.4,0,24.4,4.3,33.3,13.3l0,0l24.8-24.8c-15.8-15-36.8-23.1-58.1-22.7
		c-32.9,0-62.8,18.4-77.8,47.9l29.1,22.2C82.7,112.1,101.9,96.7,124.6,96.7z"/>
</g>
</svg>
