<?xml version="1.0" encoding="utf-8"?>
<!-- Generator: Adobe Illustrator 26.0.1, SVG Export Plug-In . SVG Version: 6.00 Build 0)  -->
<svg version="1.1" id="Layer_1" xmlns="http://www.w3.org/2000/svg" xmlns:xlink="http://www.w3.org/1999/xlink" x="0px" y="0px"
	 viewBox="0 0 320 110" style="enable-background:new 0 0 320 110;" xml:space="preserve">
<style type="text/css">
	.st0{fill:#E767A7;}
	.st1{fill:#231F20;}
	.st2{fill:#52368D;}
	.st3{fill:#FFFFFF;}
</style>
<g id="Layer_1_00000070824845362658713440000009992152931502117525_">
	<rect x="-254.4" y="-119.8" class="st0" width="1.7" height="32.3"/>
	<rect x="-129.5" y="-119.8" class="st0" width="1.7" height="32.3"/>
	<path class="st1" d="M-314.5-111.2v1.9h4.9v1.8h-4.8v14h-2.1v-14h-2.8v-1.8h2.8v-2c0-2.8,1.7-4.7,4.8-4.7c1.1,0,2.2,0.3,3.2,1
		l-0.7,1.6c-0.7-0.5-1.5-0.8-2.3-0.8C-313.5-114.2-314.5-113.1-314.5-111.2z"/>
	<path class="st1" d="M-295.9-103.3v9.8h-2V-96c-1,1.6-2.8,2.6-5.4,2.6c-3.6,0-5.8-1.9-5.8-4.6c0-2.4,1.6-4.5,6.1-4.5h5v-1
		c0-2.7-1.5-4.2-4.5-4.2c-1.9,0-3.8,0.6-5.2,1.9l-1-1.6c1.8-1.4,4.1-2.2,6.4-2.1C-298.2-109.5-295.9-107.4-295.9-103.3z M-298-98.3
		v-2.5h-5c-3.1,0-4,1.2-4,2.8c0,1.8,1.5,3,4,3C-300.8-94.9-298.8-96.2-298-98.3L-298-98.3z"/>
	<path class="st1" d="M-293-95.4l1-1.7c1.6,1.2,3.6,1.8,5.6,1.8c3,0,4.2-1,4.2-2.6c0-4.1-10.2-0.9-10.2-7.1c0-2.6,2.2-4.5,6.2-4.5
		c2,0,3.9,0.5,5.6,1.5l-0.9,1.7c-1.4-0.9-3-1.4-4.6-1.4c-2.8,0-4.1,1.1-4.1,2.6c0,4.3,10.2,1.1,10.2,7.1c0,2.7-2.4,4.5-6.5,4.5
		C-288.8-93.3-291.1-94-293-95.4z"/>
	<path class="st1" d="M-268.6-94.5c-0.9,0.8-2.1,1.1-3.3,1.1c-3,0-4.6-1.7-4.6-4.6v-9.6h-2.8v-1.8h2.8v-3.4h2.1v3.4h4.8v1.8h-4.8
		v9.4c0,1.9,1,2.9,2.7,2.9c0.9,0,1.7-0.3,2.3-0.8L-268.6-94.5z"/>
	<path class="st1" d="M-237.9-95.4l1-1.7c1.6,1.2,3.6,1.8,5.6,1.8c3,0,4.2-1,4.2-2.6c0-4.1-10.2-0.9-10.2-7.1c0-2.6,2.2-4.5,6.2-4.5
		c2,0,3.9,0.5,5.6,1.5l-0.9,1.7c-1.4-0.9-3-1.4-4.7-1.4c-2.8,0-4.1,1.1-4.1,2.6c0,4.3,10.2,1.1,10.2,7.1c0,2.7-2.4,4.5-6.5,4.5
		C-233.7-93.3-236-94-237.9-95.4z"/>
	<path class="st1" d="M-208-100.8h-13.2c0.2,3.2,2.9,5.7,6.2,5.5c0,0,0,0,0,0c1.8,0.1,3.6-0.7,4.8-2.1l1.2,1.4
		c-1.5,1.7-3.8,2.7-6.1,2.6c-4.9,0-8.3-3.4-8.3-8s3.3-8,7.7-8s7.7,3.3,7.7,8C-208-101.3-208-101-208-100.8z M-221.2-102.4h11.2
		c-0.2-3.1-2.9-5.4-6-5.2C-218.8-107.4-221-105.2-221.2-102.4z"/>
	<path class="st1" d="M-206-101.5c-0.1-4.3,3.2-7.9,7.5-8c0.2,0,0.4,0,0.6,0c2.5-0.1,4.8,1,6.2,3.1l-1.6,1.1c-1-1.5-2.8-2.4-4.6-2.3
		c-3.4,0-6.2,2.8-6.2,6.2c0,3.4,2.8,6.1,6.2,6.1c1.8,0.1,3.6-0.8,4.6-2.3l1.6,1.1c-1.4,2.1-3.7,3.2-6.2,3.1
		c-4.3,0.2-7.9-3.1-8.1-7.4C-206-101-206-101.3-206-101.5z"/>
	<path class="st1" d="M-174-109.3v15.8h-2v-2.9c-1.2,2-3.4,3.1-5.7,3c-4,0-6.7-2.2-6.7-6.8v-9.1h2.1v8.9c0,3.4,1.7,5.1,4.7,5.1
		c3.3,0,5.4-2.1,5.4-5.7v-8.3H-174z"/>
	<path class="st1" d="M-160.8-109.5v2.1c-0.2,0-0.4,0-0.5,0c-3.3,0-5.3,2.1-5.3,5.8v8h-2.1v-15.8h2v3.1
		C-165.8-108.4-163.8-109.5-160.8-109.5z"/>
	<path class="st1" d="M-144.2-100.8h-13.2c0.2,3.2,2.9,5.7,6.2,5.5c0,0,0,0,0,0c1.8,0.1,3.6-0.7,4.8-2.1l1.2,1.4
		c-1.5,1.7-3.8,2.7-6.1,2.6c-4.9,0-8.3-3.4-8.3-8s3.3-8,7.7-8s7.6,3.3,7.6,8C-144.1-101.3-144.2-101-144.2-100.8z M-157.4-102.4
		h11.2c-0.2-3.1-2.9-5.4-6-5.2C-155-107.4-157.2-105.2-157.4-102.4z"/>
	<path class="st1" d="M-96.3-115.8v22.3h-2v-3.1c-1.3,2.1-3.6,3.4-6.1,3.3c-4.4,0-8-3.6-8-8c0-4.4,3.6-8,8-8c2.4-0.1,4.7,1.1,6,3.1
		v-9.5H-96.3z M-98.4-101.5c-0.2-3.2-2.9-5.7-6.1-5.6c-3.2,0.2-5.7,2.9-5.6,6.1c0.1,3.1,2.7,5.6,5.9,5.6c3.2,0.1,5.8-2.5,5.9-5.7
		C-98.4-101.2-98.4-101.3-98.4-101.5z"/>
	<path class="st1" d="M-91.6-114.3c0-0.8,0.7-1.5,1.6-1.5c0.8,0,1.5,0.6,1.6,1.5c0,0,0,0,0,0c-0.1,0.9-0.8,1.5-1.7,1.4
		C-91-113-91.6-113.6-91.6-114.3L-91.6-114.3z M-91.2-109.3h2.1v15.8h-2.1V-109.3z"/>
	<path class="st1" d="M-86-95.4l1-1.7c1.6,1.2,3.6,1.8,5.6,1.8c3,0,4.2-1,4.2-2.6c0-4.1-10.2-0.9-10.2-7.1c0-2.6,2.2-4.5,6.2-4.5
		c2,0,3.9,0.5,5.6,1.5l-0.9,1.7c-1.4-0.9-3-1.4-4.6-1.4c-2.9,0-4.1,1.1-4.1,2.6c0,4.3,10.2,1.1,10.2,7.1c0,2.7-2.4,4.5-6.5,4.5
		C-81.9-93.3-84.1-94-86-95.4z"/>
	<path class="st1" d="M-71.5-101.5c-0.1-4.3,3.2-7.9,7.5-8c0.2,0,0.4,0,0.6,0c2.5-0.1,4.8,1,6.2,3.1l-1.6,1.1
		c-1-1.5-2.8-2.4-4.6-2.3c-3.4,0-6.1,2.8-6.1,6.1c0,3.4,2.8,6.2,6.1,6.2c1.8,0.1,3.6-0.8,4.6-2.3l1.6,1.1c-1.4,2.1-3.7,3.2-6.2,3.1
		c-4.3,0.2-7.9-3.1-8.1-7.4C-71.5-101-71.5-101.3-71.5-101.5z"/>
	<path class="st1" d="M-45.8-109.5v2.1c-0.2,0-0.4,0-0.5,0c-3.3,0-5.3,2.1-5.3,5.8v8h-2.1v-15.8h2v3.1
		C-50.8-108.4-48.8-109.5-45.8-109.5z"/>
	<path class="st1" d="M-29.1-100.8h-13.2c0.2,3.2,2.9,5.7,6.2,5.5c0,0,0,0,0,0c1.8,0.1,3.6-0.7,4.8-2.1l1.2,1.4
		c-1.5,1.7-3.8,2.7-6.1,2.6c-4.9,0-8.3-3.4-8.3-8s3.3-8,7.7-8s7.6,3.3,7.6,8C-29.1-101.3-29.1-101-29.1-100.8z M-42.3-102.4h11.2
		c-0.2-3.1-2.9-5.4-6-5.2C-39.9-107.4-42.1-105.2-42.3-102.4z"/>
	<path class="st1" d="M-11.8-100.8H-25c0.2,3.2,2.9,5.7,6.2,5.5c0,0,0,0,0,0c1.8,0.1,3.6-0.7,4.8-2.1l1.2,1.4
		c-1.5,1.7-3.8,2.7-6.1,2.6c-4.9,0-8.3-3.4-8.3-8s3.3-8,7.7-8s7.6,3.3,7.6,8C-11.8-101.3-11.8-101-11.8-100.8z M-25-102.4h11.2
		c-0.2-3.1-2.9-5.4-6-5.2C-22.5-107.4-24.7-105.2-25-102.4L-25-102.4z"/>
	<path class="st1" d="M0.2-94.5c-0.9,0.8-2.1,1.1-3.3,1.1c-3,0-4.6-1.7-4.6-4.6v-9.6h-2.8v-1.8h2.8v-3.4h2.1v3.4h4.8v1.8h-4.8v9.4
		c0,1.9,1,2.9,2.7,2.9c0.9,0,1.7-0.3,2.3-0.8L0.2-94.5z"/>
</g>
<g id="Layer_1_00000016062915365392604630000006206266821172419227_">
	<rect x="-503.7" y="-30.4" class="st0" width="1.7" height="32.3"/>
	<rect x="-378.7" y="-30.4" class="st0" width="1.7" height="32.3"/>
	<path class="st1" d="M-563.7-21.8v1.9h4.9v1.8h-4.8v14h-2.1v-14h-2.8V-20h2.8v-2c0-2.8,1.7-4.7,4.8-4.7c1.1,0,2.2,0.3,3.2,1
		l-0.7,1.6c-0.7-0.5-1.5-0.8-2.3-0.8C-562.8-24.8-563.7-23.8-563.7-21.8z"/>
	<path class="st1" d="M-545.1-14v9.8h-2v-2.5c-1,1.6-2.8,2.6-5.4,2.6c-3.6,0-5.8-1.9-5.8-4.6c0-2.4,1.6-4.5,6.1-4.5h5v-1
		c0-2.7-1.5-4.2-4.5-4.2c-1.9,0-3.8,0.6-5.2,1.9l-1-1.6c1.8-1.4,4.1-2.2,6.4-2.1C-547.4-20.1-545.1-18-545.1-14z M-547.3-9v-2.5h-5
		c-3.1,0-4,1.2-4,2.8c0,1.8,1.5,3,4,3C-550.1-5.5-548-6.9-547.3-9L-547.3-9z"/>
	<path class="st1" d="M-542.3-6l1-1.7c1.6,1.2,3.6,1.8,5.6,1.8c3,0,4.2-1,4.2-2.6c0-4.1-10.2-0.9-10.2-7.1c0-2.6,2.2-4.5,6.2-4.5
		c2,0,3.9,0.5,5.6,1.5l-0.9,1.7c-1.4-0.9-3-1.4-4.6-1.3c-2.8,0-4.1,1.1-4.1,2.6c0,4.3,10.2,1.1,10.2,7.1c0,2.7-2.4,4.5-6.5,4.5
		C-538.1-4-540.4-4.6-542.3-6z"/>
	<path class="st1" d="M-517.8-5.1c-0.9,0.8-2.1,1.1-3.3,1.1c-3,0-4.6-1.7-4.6-4.6v-9.6h-2.8V-20h2.8v-3.4h2.1v3.4h4.8v1.8h-4.8v9.4
		c0,1.9,1,2.9,2.7,2.9c0.9,0,1.7-0.3,2.3-0.8L-517.8-5.1z"/>
	<path class="st1" d="M-487.1-6l1-1.7c1.6,1.2,3.6,1.8,5.6,1.8c3,0,4.2-1,4.2-2.6c0-4.1-10.2-0.9-10.2-7.1c0-2.6,2.2-4.5,6.2-4.5
		c2,0,3.9,0.5,5.6,1.5l-0.9,1.7c-1.4-0.9-3-1.4-4.6-1.3c-2.9,0-4.1,1.1-4.1,2.6c0,4.3,10.2,1.1,10.2,7.1c0,2.7-2.4,4.5-6.5,4.5
		C-483-4-485.2-4.6-487.1-6z"/>
	<path class="st1" d="M-457.3-11.4h-13.2c0.2,3.2,2.9,5.7,6.2,5.5c0,0,0,0,0,0c1.8,0.1,3.6-0.7,4.8-2.1l1.2,1.4
		c-1.5,1.7-3.8,2.7-6.1,2.6c-4.9,0-8.3-3.4-8.3-8s3.3-8,7.7-8s7.7,3.3,7.7,8C-457.2-11.9-457.3-11.6-457.3-11.4z M-470.5-13h11.2
		c-0.2-3.1-2.9-5.4-6-5.2C-468.1-18-470.3-15.8-470.5-13z"/>
	<path class="st1" d="M-455.2-12.1c-0.1-4.3,3.2-7.9,7.5-8c0.2,0,0.4,0,0.6,0c2.5-0.1,4.8,1,6.2,3.1l-1.6,1.1
		c-1-1.5-2.8-2.4-4.6-2.3c-3.4,0-6.1,2.8-6.1,6.2s2.8,6.2,6.1,6.2c1.8,0.1,3.6-0.8,4.6-2.3l1.6,1.1c-1.4,2.1-3.7,3.2-6.2,3.1
		c-4.3,0.2-7.9-3.1-8.1-7.4C-455.2-11.6-455.2-11.9-455.2-12.1z"/>
	<path class="st1" d="M-423.3-20v15.8h-2v-2.9c-1.2,2-3.4,3.1-5.7,3c-4,0-6.7-2.2-6.7-6.8V-20h2.1v8.9c0,3.4,1.7,5.1,4.7,5.1
		c3.3,0,5.4-2.1,5.4-5.7V-20H-423.3z"/>
	<path class="st1" d="M-410.1-20.1v2.1c-0.2,0-0.4,0-0.5,0c-3.3,0-5.3,2.1-5.3,5.8v8h-2.1V-20h2v3.1C-415-19-413-20.1-410.1-20.1z"
		/>
	<path class="st1" d="M-393.4-11.4h-13.2c0.2,3.2,2.9,5.7,6.2,5.5c0,0,0,0,0,0c1.8,0.1,3.6-0.7,4.8-2.1l1.2,1.4
		c-1.5,1.7-3.8,2.7-6.1,2.6c-4.9,0-8.3-3.4-8.3-8s3.3-8,7.7-8s7.6,3.3,7.6,8C-393.4-11.9-393.4-11.6-393.4-11.4z M-406.6-13h11.2
		c-0.2-3.1-2.9-5.4-6-5.2C-404.2-18-406.4-15.8-406.6-13z"/>
	<path class="st1" d="M-345.6-26.4v22.3h-2v-3.1c-1.3,2.1-3.6,3.4-6.1,3.3c-4.4,0-8-3.6-8-8s3.6-8,8-8c2.4-0.1,4.7,1.1,6,3.1v-9.5
		H-345.6z M-347.7-12.1c-0.2-3.2-2.9-5.7-6.1-5.6c-3.2,0.2-5.7,2.9-5.6,6.1c0.1,3.1,2.7,5.6,5.9,5.6c3.2,0.1,5.8-2.5,5.9-5.7
		C-347.7-11.8-347.7-11.9-347.7-12.1z"/>
	<path class="st1" d="M-340.9-24.9c0-0.8,0.7-1.5,1.5-1.5c0.8,0,1.5,0.6,1.6,1.5c0,0,0,0,0,0c-0.1,0.9-0.8,1.5-1.7,1.4
		C-340.2-23.6-340.8-24.2-340.9-24.9L-340.9-24.9z M-340.4-19.9h2.1v15.8h-2.1V-19.9z"/>
	<path class="st1" d="M-335.3-6l1-1.7c1.6,1.2,3.6,1.8,5.6,1.8c3,0,4.2-1,4.2-2.6c0-4.1-10.2-0.9-10.2-7.1c0-2.6,2.2-4.5,6.2-4.5
		c2,0,3.9,0.5,5.6,1.5l-0.9,1.7c-1.4-0.9-3-1.4-4.6-1.3c-2.9,0-4.1,1.1-4.1,2.6c0,4.3,10.2,1.1,10.2,7.1c0,2.7-2.4,4.5-6.5,4.5
		C-331.1-4-333.4-4.6-335.3-6z"/>
	<path class="st1" d="M-320.8-12.1c-0.1-4.3,3.2-7.9,7.5-8c0.2,0,0.4,0,0.6,0c2.5-0.1,4.8,1,6.2,3.1l-1.6,1.1
		c-1-1.5-2.8-2.4-4.6-2.3c-3.4,0-6.1,2.8-6.1,6.2s2.8,6.2,6.1,6.2c1.8,0.1,3.6-0.8,4.6-2.3l1.6,1.1c-1.4,2.1-3.7,3.2-6.2,3.1
		c-4.3,0.2-7.9-3.1-8.1-7.4C-320.8-11.7-320.8-11.9-320.8-12.1z"/>
	<path class="st1" d="M-295.1-20.1v2.1c-0.2,0-0.4,0-0.5,0c-3.3,0-5.3,2.1-5.3,5.8v8h-2.1V-20h2v3.1C-300-19-298-20.1-295.1-20.1z"
		/>
	<path class="st1" d="M-278.4-11.4h-13.2c0.2,3.2,2.9,5.7,6.2,5.5c0,0,0,0,0,0c1.8,0.1,3.6-0.7,4.8-2.1l1.2,1.4
		c-1.5,1.7-3.8,2.7-6.1,2.6c-4.9,0-8.3-3.4-8.3-8s3.3-8,7.7-8s7.6,3.3,7.6,8C-278.4-11.9-278.4-11.6-278.4-11.4z M-291.6-13h11.2
		c-0.2-3.1-2.9-5.4-6-5.2C-289.2-18-291.4-15.8-291.6-13z"/>
	<path class="st1" d="M-261-11.4h-13.2c0.2,3.2,2.9,5.7,6.2,5.5c0,0,0,0,0,0c1.8,0.1,3.6-0.7,4.8-2.1l1.2,1.4
		c-1.5,1.7-3.8,2.7-6.1,2.6c-4.9,0-8.3-3.4-8.3-8s3.3-8,7.7-8s7.6,3.3,7.6,8C-261-11.9-261-11.6-261-11.4z M-274.2-13h11.2
		c-0.2-3.1-2.9-5.4-6-5.2C-271.8-18-274-15.8-274.2-13L-274.2-13z"/>
	<path class="st1" d="M-249.1-5.1c-0.9,0.8-2.1,1.1-3.3,1.1c-3,0-4.6-1.7-4.6-4.6v-9.6h-2.8V-20h2.8v-3.4h2.1v3.4h4.8v1.8h-4.8v9.4
		c0,1.9,1,2.9,2.7,2.9c0.9,0,1.7-0.3,2.3-0.8L-249.1-5.1z"/>
</g>
<g id="Layer_2_00000018937043340851303320000014084323490316693170_">
	<path class="st0" d="M-191.8-182.7c-0.9-2-0.9-2.3-0.7-4.8c0.1-0.9,0.2-2.5,0.2-4.7c0.1-5.2-2.1-7.4-4-8.4c-1.2-1.5-3-2.5-5-2.8
		c-1.6-0.3-3.2-0.1-4.6,0.4c-1.4,0.5-2.5,1.7-2.8,3.2c-0.2,1.5,0.4,2.9,1.5,3.9c1.2,1.1,2.7,1.7,4.2,2c1.4,0.2,2.7,0.2,4.1-0.2
		c1.1,1.2,1.4,3.2,1.7,5.4c0.4,2.8,0.9,5.7,3.1,7.7l0.1,0.1l0,0c0.2,0.2,0.5,0.2,0.8,0.2c0.3,0,0.6-0.1,0.9-0.3
		C-191.7-181.3-191.5-182-191.8-182.7z M-204.8-200.3c1-0.3,2-0.4,3-0.2c1.3,0.2,2.4,0.8,3.2,1.8c0.2,0.3,0.4,0.5,0.7,0.6
		c1.9,0.8,2.5,2.9,2.6,4.8c-0.4-1.4-1.3-2.7-2.5-3.6c-0.2-0.2-0.5-0.3-0.8-0.3c-0.2,0-0.4,0.1-0.6,0.1c-1,0.4-2.1,0.6-3.2,0.3l0,0
		c-1-0.2-1.9-0.6-2.7-1.2c-0.2-0.2-0.8-0.8-0.7-1.3C-205.8-199.6-205.3-200-204.8-200.3z"/>
	<path class="st2" d="M-117.3-176.6h-16.7v-7.8h42.6v7.9H-108v42.3h-9.3V-176.6z"/>
	<path class="st2" d="M-95.8-159.4c0-14.9,11.5-25.9,27.1-25.9s27.1,10.9,27.1,25.9s-11.5,25.8-27.1,25.8S-95.8-144.5-95.8-159.4z
		 M-51-159.4c0-10.3-7.5-17.7-17.7-17.7s-17.7,7.4-17.7,17.7s7.6,17.7,17.7,17.7S-51-149.1-51-159.4L-51-159.4z"/>
	<path class="st2" d="M-19.3-152v17.7h-9.3v-17.6l-19.8-32.6h10l14.7,24.4l14.9-24.4h9.2L-19.3-152z"/>
	<path class="st0" d="M-192.7-135.1c11,0,20-9,20-20v-26.3l1-0.4c1.5-0.4,2.5-1.8,2.5-3.3c0-2.3-1.1-4.4-2.8-5.9l-0.5-0.5
		c-0.7-0.6-1.3-1.3-1.9-2.1c-0.3-0.4-0.5-0.9-0.8-1.4c-1.4-2.7-2.7-4.8-5.5-4.8c-0.9,0-1.7,1.3-2.2,2.3c-1.6,3.3-2.9,9.5-1,11.9
		l0.3,0.4l0.4,0.4v29.6c0,5.3-4.3,9.5-9.5,9.5c-5.3,0-9.5-4.3-9.5-9.5v-13.2l0.9-0.4c1.2-0.5,2-1.7,2-3c0-3-1.7-4.7-3.2-6.1
		c-0.7-0.6-1.3-1.3-1.8-2c-0.3-0.4-0.5-0.9-0.8-1.4c-1.4-2.6-2.6-4.6-5.2-4.6c-0.8,0-1.6,1.2-2.1,2.2c-1.6,3.2-2.8,9.1-0.9,11.4
		l0.2,0.2l0.4,0.4v16.4C-212.7-144-203.8-135.1-192.7-135.1C-192.7-135.1-192.7-135.1-192.7-135.1z"/>
	<path class="st0" d="M-279.9-144.1h-25.2l-5,11.6h-9.6l22.7-50.3h9.2l22.7,50.3h-9.8L-279.9-144.1z M-283-151.4l-9.5-22l-9.4,22
		H-283z"/>
	<path class="st0" d="M-265.9-182.8h22c16.3,0,27.5,10.1,27.5,25.2c0,15.1-11.1,25.1-27.5,25.1h-22V-182.8z M-244.3-140.4
		c11.2,0,18.5-6.8,18.5-17.3c0-10.4-7.3-17.3-18.5-17.3h-12.2v34.5H-244.3z"/>
	<path class="st0" d="M-162-182.8h9.4v42.4h26.3v7.9H-162V-182.8z"/>
</g>
<text transform="matrix(1 0 0 1 -58.2295 386.1113)" style="font-family:'BillionDreams'; font-size:112.1415px;">sweetsextoy</text>
<text transform="matrix(1 0 0 1 -460.3027 192.5957)" style="font-family:'DeadheadScript'; font-size:112.1415px;">sweetsextoy</text>
<text transform="matrix(1 0 0 1 18.2929 234.6443)" style="font-family:'WhiteDreamPERSONALUSEONLY-Regular'; font-size:112.1415px;">l</text>
<text transform="matrix(1 0 0 1 -421.2119 346.9248)" style="font-family:'RamadhanMubarak'; font-size:112.1415px;">sweetsextoy</text>
<text transform="matrix(1 0 0 1 112.57 169.9604)" class="st2" style="font-family:'Raleway-Medium'; font-size:20.5475px;">Ultimate experience</text>
<g>
	<g>
		<path class="st0" d="M1,50.8c2.3-6.4,10.9-3.4,7.1,3c-4.2,7.3-1.6,13,3.9,13c3.1,0,5.5-1.8,6.1-6.3c1.1-7.9-7.9-13.9-9.1-21.9
			c-1.3-9.2,5.3-13.9,10.9-13.8c5.6,0.1,9.4,2.7,10.2,7.6c1.2,7.6-8.5,7.7-7.4,1.5c0.6-3,0.5-6.5-2.2-6.7c-2.9-0.3-5.3,2.9-4.2,7.8
			c1.2,5.7,8.7,10.9,9.4,20.3C26.2,62.5,20.4,70,11.9,70C0.7,70-1.6,58.1,1,50.8z"/>
		<path class="st0" d="M49.5,64.8c-3.1,3.1-6.3,5.1-9.4,5.3c-14.9,0.8-13.3-24.8,0.3-39.2c-2,0.4-3.8,0.8-5.8,0.3
			c-5.1-1.3-2-8.8,2.5-5.5c3.2,2.3,5.3,2.8,9,1.3c0.9-0.3,1.7,0.7,1.1,1.4c-8.4,10.4-12.7,33.8-4.9,35.6c1.9,0.4,3.8-0.6,5.8-2.5
			c-1.4-4-1.8-8.9-1.6-13.5c0.6-11.2,6-22.2,12.5-22.2c9.3,0,4.5,18.9-4.1,32c0.8,3.1,2.2,5.4,4.4,6.3c8.1,3.3,17.3-22.2,9.3-31.8
			c-4.2-5,3.1-8.5,6.4-3.3c7,11.3-4.8,41.1-16.8,41.1C54.1,70.2,51.4,68.1,49.5,64.8z M59.7,29.1c-2.2-1.8-6.1,12.6-5.5,23.5
			C59.1,43.2,62.2,31,59.7,29.1z"/>
		<path class="st0" d="M79.9,47.7c2-10.1,9.6-22.4,19-22.4c13.3,0,7.9,26-10.9,24.1c-1.1,6.9,0.8,13,4.8,13.8
			c4.4,0.8,10.7-3.4,14.6-15.7h2.7C107,59.8,98.9,69.4,90,69.4C80.8,69.4,77.5,59.8,79.9,47.7z M100.2,28.1
			c-4.1,0-9.3,8.4-11.8,18.9C100.6,45.1,104,28.1,100.2,28.1z"/>
		<path class="st0" d="M107.2,47.7c2-10.1,9.6-22.4,19-22.4c13.3,0,7.9,26-10.9,24.1c-1.1,6.9,0.8,13,4.8,13.8
			c4.4,0.8,10.7-3.4,14.6-15.7h2.7c-3.1,12.2-11.2,21.9-20.1,21.9C108.2,69.4,104.8,59.8,107.2,47.7z M127.5,28.1
			c-4.1,0-9.3,8.4-11.8,18.9C128,45.1,131.4,28.1,127.5,28.1z"/>
		<path class="st0" d="M132.4,56.2c0.4-1.4,7.8-29.8,11.7-44.3c-8.2-2-15-2.4-17.8,2.5c-7,12.4-14.8,2.6-4.7-3.4
			c7.5-4.5,15.5-4.6,23.7-3.4c0.6-2.2,1-3.5,1.1-4c3.1-0.3,5.9-1.4,8.5-3.5l-2.2,8.7c4.9,1,9.8,2.1,14.6,2.7
			c25.4,3,29.8-0.6,28.3-4.1c-6.5-3.9,1.2-10,3.8-3.7c2.1,5.3-1.6,17.4-26.1,15.6c-6.5-0.5-14.4-3.1-21.8-5.3
			c-4.3,17.1-10.9,43.6-11.3,44.9c-0.8,2.9-0.2,4.6,2,4.6c2.7,0,5.8-3.4,9.8-15.9h2.7c-2.5,9.9-7.2,21.9-16.4,21.9
			C132.4,69.4,130.2,63.6,132.4,56.2z"/>
	</g>
	<path class="st2" d="M148.8,50.8c2.3-6.4,10.9-3.4,7.1,3c-4.2,7.3-1.6,13,3.9,13c3.1,0,5.5-1.8,6.1-6.3c1.1-7.9-7.9-13.9-9.1-21.9
		c-1.3-9.2,5.3-13.9,10.9-13.8s9.4,2.7,10.2,7.6c1.2,7.6-8.5,7.7-7.4,1.5c0.6-3,0.5-6.5-2.2-6.7c-2.9-0.3-5.3,2.9-4.2,7.8
		c1.2,5.7,8.7,10.9,9.4,20.3c0.5,7.1-5.3,14.7-13.8,14.7C148.6,70,146.2,58.1,148.8,50.8z"/>
	<path class="st2" d="M178.9,47.7c2-10.1,9.6-22.4,19-22.4c13.3,0,7.9,26-10.9,24.1c-1.1,6.9,0.8,13,4.8,13.8
		c4.4,0.8,10.7-3.4,14.6-15.7h2.7C206,59.8,197.9,69.4,189,69.4C179.9,69.4,176.5,59.8,178.9,47.7z M199.2,28.1
		c-4.1,0-9.3,8.4-11.8,18.9C199.6,45.1,203.1,28.1,199.2,28.1z"/>
	<path class="st2" d="M209,34.5c0-4.1,0.1-7-0.7-7.7h1.9c9.5,0,6.1,10,7.4,20.8c8.7-6.9,11.1-11.9,8.2-16.5
		c-3.7-5.6,5.6-9.1,7.5-3.4c2,6.1-5.6,15.8-14.8,23c2.2,7.1,6,12.2,8.8,11.7c1.9-0.3,4.2-2.2,8.2-14.7h2.7
		c-2.5,9.9-6.6,21.2-15,21.9c-5.1,0.4-10.1-6.1-12.3-13.5c-6.8,4.5-6.9,9.3-4,13.9c3.7,5.6-5.6,9.1-7.5,3.4
		c-2-6.1,2.3-13.5,10.6-20.8c-0.3-1.8-0.6-3.6-0.7-5.4c-2.4,5.5-3.5,2.7-2.9,0.5C206.9,45.5,208.4,41.2,209,34.5z"/>
	<path class="st2" d="M251.7,48.4c2.8-11.9,10.7-21.4,19.5-22c9.1-0.6,14.5,7.3,11.8,19.9c-2.5,11.9-11.8,23.1-20.1,23.1
		C253.6,69.4,248.5,62,251.7,48.4z M263.4,65.7c3.8-1.3,8.2-11.3,10.5-20.6c2.3-9.9,1.7-16-1.6-15.4c-3.8,0.7-9.1,10.3-11.6,20
		C257.6,61.3,259.6,67,263.4,65.7z"/>
	<path class="st2" d="M200.4,87.9c11.5-16.1,40-16.2,60.4-13.5c9.5,1.3,20.5,5,29.4,0.3l1.3-0.8c4.9-4.6,6.9,1,2.7,1.8
		c-4.5,1.8-5.7,6.1-7.2,12.4c-2.1,9.2,6,10.8,10.4-6.2l4.8-18.7c-2.5,4-5.5,6.8-8.7,6.8c-12.1,0-10.8-22.7,5.1-37.9
		c-2.1,0.8-4.6,1.3-6.9,0.5c-4.7-1.7-0.2-8.7,3.8-5.5c3.8,3,7.3,0.5,10.5-0.1c0.9-0.2,1.4,0.9,0.7,1.3c-10.1,6-17.2,32.9-10.4,34.5
		c4.7,1.1,7.2-7.7,9.7-15.2l5.4-20.9h8.5L305.5,82c-5.5,21.1-27.6,19.8-26.1,6.1c0.4-3.4,1.8-6.1,4.4-8.7
		c-27.4,9.2-47.2-4.8-68.4,1.3c-8.5,2.6-12.5,6.4-14.1,12.9c-1.6,6.5,5.1,11.4,11.1,5.5c6.7-6.6,14.1,6,2.1,9.9
		C199.5,114.2,193.3,97.8,200.4,87.9z"/>
	<path class="st2" d="M239,35.6c1.3-3.9,7.4-33.1,5.7-34.5h7.1c2.5,0,3.2,1.4,2.5,3.8c-0.4,1.4-12.3,52.2-12.9,54.1
		c-0.8,2.8-1.3,4.5,0.7,4.5c2.7,0,5.8-3.3,9.8-15.4h2.7c-2.5,9.6-7.2,21.2-16.4,21.2c-5,0-7-6.4-5-12.9
		C233.7,54.5,238.4,37.5,239,35.6z"/>
	<path class="st2" d="M236.3,20c-4.9-0.3-7.3-1.6,0.5-4.9c6.7-2.8,12.8-4,15.6-2.3c4.4,2.5,9.2,4.6,17,5.1l-2.6,1.4
		C257.8,20,245.3,20.6,236.3,20z"/>
	<g>
		<path class="st2" d="M223.4,101.2c0-0.9,0.2-1.8,0.5-2.7c0.3-0.8,0.8-1.6,1.5-2.2c0.6-0.6,1.4-1.1,2.3-1.5s1.9-0.6,3-0.6
			c1.4,0,2.7,0.3,3.7,0.9s1.8,1.4,2.3,2.4l-2.4,0.7c-0.4-0.6-0.9-1.1-1.5-1.5c-0.7-0.4-1.4-0.5-2.2-0.5c-0.7,0-1.3,0.1-1.9,0.4
			c-0.6,0.2-1.1,0.6-1.5,1c-0.4,0.4-0.8,1-1,1.6c-0.2,0.6-0.4,1.3-0.4,2c0,0.7,0.1,1.4,0.4,2c0.3,0.6,0.6,1.1,1,1.6
			c0.4,0.5,0.9,0.8,1.5,1.1c0.6,0.3,1.2,0.4,1.8,0.4c0.4,0,0.8-0.1,1.2-0.2c0.4-0.1,0.8-0.3,1.1-0.4c0.3-0.2,0.6-0.4,0.9-0.7
			c0.3-0.2,0.4-0.5,0.5-0.8l2.4,0.7c-0.2,0.5-0.5,0.9-0.9,1.4c-0.4,0.4-0.9,0.8-1.4,1c-0.5,0.3-1.1,0.5-1.8,0.7
			c-0.6,0.2-1.3,0.3-2,0.3c-1.1,0-2.1-0.2-3-0.6c-0.9-0.4-1.7-0.9-2.3-1.5c-0.6-0.6-1.1-1.4-1.5-2.2
			C223.6,103,223.4,102.2,223.4,101.2z"/>
		<path class="st2" d="M244.9,108.2c-1.1,0-2.1-0.2-2.9-0.6c-0.9-0.4-1.6-0.9-2.3-1.5c-0.6-0.6-1.1-1.4-1.5-2.2
			c-0.3-0.8-0.5-1.7-0.5-2.6c0-0.9,0.2-1.8,0.5-2.7c0.4-0.8,0.8-1.6,1.5-2.2c0.6-0.6,1.4-1.1,2.3-1.5c0.9-0.4,1.9-0.6,2.9-0.6
			s2,0.2,2.9,0.6c0.9,0.4,1.7,0.9,2.3,1.5c0.6,0.6,1.1,1.4,1.5,2.2c0.4,0.8,0.5,1.7,0.5,2.7c0,0.9-0.2,1.8-0.5,2.6
			c-0.3,0.8-0.8,1.6-1.5,2.2c-0.6,0.6-1.4,1.1-2.3,1.5C247,108,246,108.2,244.9,108.2z M240.2,101.3c0,0.7,0.1,1.3,0.4,1.9
			c0.2,0.6,0.6,1.1,1,1.6c0.4,0.4,0.9,0.8,1.5,1c0.6,0.3,1.2,0.4,1.8,0.4c0.7,0,1.3-0.1,1.9-0.4c0.6-0.3,1.1-0.6,1.5-1.1
			c0.4-0.5,0.8-1,1-1.6c0.2-0.6,0.4-1.3,0.4-2c0-0.7-0.1-1.3-0.4-1.9c-0.2-0.6-0.6-1.1-1-1.6c-0.4-0.5-0.9-0.8-1.5-1.1
			c-0.6-0.3-1.2-0.4-1.9-0.4c-0.7,0-1.3,0.1-1.8,0.4c-0.6,0.3-1.1,0.6-1.5,1.1c-0.4,0.5-0.8,1-1,1.6
			C240.3,99.9,240.2,100.6,240.2,101.3z"/>
		<path class="st2" d="M275.9,107.9h-2.4v-7.5c0-1.4-0.2-2.4-0.7-3.1c-0.5-0.7-1.2-1-2.2-1c-1,0-1.9,0.3-2.6,1
			c-0.8,0.7-1.3,1.5-1.7,2.5v8h-2.4v-7.5c0-1.4-0.2-2.5-0.7-3.1c-0.5-0.6-1.2-1-2.1-1c-1,0-1.8,0.3-2.6,1c-0.8,0.6-1.3,1.5-1.7,2.5
			v8.1h-2.4V94.6h2.2v2.9c0.6-1,1.3-1.8,2.3-2.3s2-0.8,3.2-0.8c1.2,0,2.2,0.3,2.9,0.9c0.7,0.6,1.1,1.4,1.3,2.3
			c1.3-2.2,3.1-3.3,5.5-3.3c0.8,0,1.5,0.1,2.1,0.4s1,0.7,1.3,1.2c0.3,0.5,0.6,1.1,0.7,1.8c0.1,0.7,0.2,1.4,0.2,2.2V107.9z"/>
	</g>
	<ellipse class="st3" cx="216.3" cy="102.5" rx="3.1" ry="3.2"/>
</g>
</svg>
