<svg id="Layer_1" data-name="Layer 1" xmlns="http://www.w3.org/2000/svg" viewBox="0 0 319.93 61.91"><defs><style>.cls-1{fill:#1e80b8;}.cls-2{fill:#606060;}.cls-3{fill:#f60;}</style></defs><path class="cls-1" d="M82.91,14.47a10,10,0,0,1-.67,3.74,8.12,8.12,0,0,1-1.85,2.84,7.88,7.88,0,0,1-2.81,1.77,9.63,9.63,0,0,1-3.52.61,9.26,9.26,0,0,1-4.4-.88v10.2H67.58a3.41,3.41,0,0,1-1.14-.19,2.63,2.63,0,0,1-1-.64,3.46,3.46,0,0,1-.77-1.16A4.87,4.87,0,0,1,64.35,29V7.53c.37-.12.84-.26,1.43-.41s1.19-.28,1.83-.4,1.27-.22,1.91-.29a15.42,15.42,0,0,1,1.66-.11h3a11.47,11.47,0,0,1,3.54.53A7.69,7.69,0,0,1,80.46,8.4,7.1,7.1,0,0,1,82.25,11,8.93,8.93,0,0,1,82.91,14.47Zm-5.41.47a4.49,4.49,0,0,0-1-3.23,4.14,4.14,0,0,0-3-1H71.85a5.11,5.11,0,0,0-1.11.14l-1.06.22v7.43a16.45,16.45,0,0,0,1.7.33,15.07,15.07,0,0,0,2,.13,4.18,4.18,0,0,0,3.09-1.07,4.11,4.11,0,0,0,1-3Z" transform="translate(-0.07)"/><path class="cls-1" d="M98.66,17.07a11.38,11.38,0,0,0-1.29-.41,7,7,0,0,0-1.7-.19,3.39,3.39,0,0,0-2.64,1,5,5,0,0,0-.92,3.38V32.75H90.69A4.23,4.23,0,0,1,88,31.91a3,3,0,0,1-1-2.45V20a10.58,10.58,0,0,1,.43-3,6.61,6.61,0,0,1,3.7-4.37,8.12,8.12,0,0,1,3.5-.7,5.66,5.66,0,0,1,2,.31,3.89,3.89,0,0,1,1.32.77A3.08,3.08,0,0,1,98.66,14a3.75,3.75,0,0,1,.23,1.19v1.85Z" transform="translate(-0.07)"/><path class="cls-1" d="M108.92,7.57A2.9,2.9,0,0,1,108,9.7a2.92,2.92,0,0,1-2.19.9,2.84,2.84,0,0,1-2.1-.9,2.91,2.91,0,0,1-.89-2.13,2.84,2.84,0,0,1,.89-2.09,3,3,0,0,1,4.23,0A2.83,2.83,0,0,1,108.92,7.57Zm3.69,22.26a3.32,3.32,0,0,1-.72,2.39,3.24,3.24,0,0,1-2.36.71A6.05,6.05,0,0,1,105,31.29a6.66,6.66,0,0,1-1.59-4.79v-14h1.46a3.71,3.71,0,0,1,2.7.93,3.9,3.9,0,0,1,1,2.88V26a2.6,2.6,0,0,0,.71,2.14,3.86,3.86,0,0,0,2.43.57h1Z" transform="translate(-0.07)"/><path class="cls-1" d="M133.18,32.75a3.87,3.87,0,0,1-2.74-1,3.17,3.17,0,0,1-1-2.44V21.19a5.73,5.73,0,0,0-1.08-3.87,4,4,0,0,0-3.09-1.18,3.4,3.4,0,0,0-2.71,1.21,5.09,5.09,0,0,0-1,3.43v12H120a3.6,3.6,0,0,1-2.63-1,3.19,3.19,0,0,1-1-2.44V20.46a9.93,9.93,0,0,1,.55-3.24,8.47,8.47,0,0,1,1.69-2.84,8,8,0,0,1,2.89-2,10.51,10.51,0,0,1,4.18-.77,9.84,9.84,0,0,1,3.44.59,7.87,7.87,0,0,1,2.82,1.75,8.43,8.43,0,0,1,1.91,2.88,10,10,0,0,1,.71,3.86V32.75Z" transform="translate(-0.07)"/><path class="cls-1" d="M140.68,12.9a9.5,9.5,0,0,1,.09-1.31,5.84,5.84,0,0,1,.25-1,3.56,3.56,0,0,1,.46-.86c.19-.26.43-.57.7-.9a5.4,5.4,0,0,1,1.17-1,2.25,2.25,0,0,1,1.25-.41h1.19V12H153v2.11a2.41,2.41,0,0,1-.78,1.63,2.91,2.91,0,0,1-2.31.82h-4.1v8.14a4,4,0,0,0,.85,2.87,3.17,3.17,0,0,0,2.47.83,7.31,7.31,0,0,0,3.71-.72H153v1.83a3.09,3.09,0,0,1-1.13,2.52,5.29,5.29,0,0,1-3.4.92q-3.94,0-5.85-2a7.9,7.9,0,0,1-1.9-5.64Z" transform="translate(-0.07)"/><path class="cls-1" d="M174.38,19.62a4,4,0,0,1-2.32,3.91c-1.54.74-4,1.11-7.39,1.1H161.3a4.57,4.57,0,0,0,1.9,3.09,6.4,6.4,0,0,0,3.86,1.15,14.47,14.47,0,0,0,3.34-.41,6.42,6.42,0,0,0,3-1.54h.18v1.66a4.43,4.43,0,0,1-.36,1.83A3.52,3.52,0,0,1,172,31.89a6.52,6.52,0,0,1-2.31,1,14.54,14.54,0,0,1-3.54.37,9.88,9.88,0,0,1-3.76-.74,9.74,9.74,0,0,1-3.21-2.13A10.07,10.07,0,0,1,156,22.83a13.76,13.76,0,0,1,.77-4.63,10.28,10.28,0,0,1,2.09-3.55A8.84,8.84,0,0,1,162,12.36a10.47,10.47,0,0,1,4.06-.77,8.61,8.61,0,0,1,3.09.55,8.28,8.28,0,0,1,2.64,1.55,7.66,7.66,0,0,1,1.84,2.52A8,8,0,0,1,174.38,19.62ZM169.55,19a2.7,2.7,0,0,0-1.06-2.32,4.78,4.78,0,0,0-2.85-.77,4.15,4.15,0,0,0-1.7.36,4.66,4.66,0,0,0-1.36,1,4.14,4.14,0,0,0-.91,1.39,5.15,5.15,0,0,0-.35,1.69l0,.68h2.32a25.74,25.74,0,0,0,3-.1,8.61,8.61,0,0,0,1.82-.35,1.74,1.74,0,0,0,.91-.62A1.65,1.65,0,0,0,169.55,19Z" transform="translate(-0.07)"/><path class="cls-1" d="M191,17.07a11.38,11.38,0,0,0-1.29-.41,7,7,0,0,0-1.7-.19,3.36,3.36,0,0,0-2.63,1,5,5,0,0,0-.92,3.38V32.75h-1.4a4.19,4.19,0,0,1-2.74-.84,3,3,0,0,1-1-2.45V20a11.32,11.32,0,0,1,.41-3,7.23,7.23,0,0,1,1.34-2.58,6.65,6.65,0,0,1,2.38-1.79,8.12,8.12,0,0,1,3.5-.7,5.66,5.66,0,0,1,2,.31,3.89,3.89,0,0,1,1.32.77A3.13,3.13,0,0,1,191,14a3.75,3.75,0,0,1,.23,1.19v1.85Z" transform="translate(-0.07)"/><path class="cls-1" d="M211.76,14.51a13.53,13.53,0,0,1-.4,2.2A38.47,38.47,0,0,1,210,21.06c-.36.94-.77,2-1.2,3s-.92,2.13-1.44,3.17-1.05,2.07-1.64,3.09A31,31,0,0,1,204,33h-1a3.52,3.52,0,0,1-1.88-.45,5.76,5.76,0,0,1-1.49-1.66,38.12,38.12,0,0,1-2.16-4,52.64,52.64,0,0,1-2.12-5,53.18,53.18,0,0,1-1.66-5.21,26.84,26.84,0,0,1-.85-4.72h2.77a2.91,2.91,0,0,1,2.13.78,3.21,3.21,0,0,1,.93,1.65,53.76,53.76,0,0,0,1.42,5.86,36.46,36.46,0,0,0,2.53,6.18c.49-1,1-2,1.41-3.18s.88-2.32,1.28-3.6a38.56,38.56,0,0,0,1.06-3.86c.29-1.33.56-2.6.78-3.91h2.15a2.39,2.39,0,0,1,1.88.6A2.67,2.67,0,0,1,211.76,14.51Z" transform="translate(-0.07)"/><path class="cls-1" d="M232,25.7a7.61,7.61,0,0,1-.58,3,6.66,6.66,0,0,1-1.6,2.32,7.38,7.38,0,0,1-2.47,1.5,8.94,8.94,0,0,1-3.16.54h-1a10.72,10.72,0,0,1-3.37-.51,8.16,8.16,0,0,1-2.62-1.35,5.86,5.86,0,0,1-2.28-4.69,6.13,6.13,0,0,1,.53-2.57,5.26,5.26,0,0,1,1.75-2.05,9.21,9.21,0,0,1,3.17-1.36,20,20,0,0,1,4.82-.5h1.79v-.26a3.54,3.54,0,0,0-1.07-3,5.65,5.65,0,0,0-3.36-.77,11.52,11.52,0,0,0-2.48.24,9,9,0,0,0-1.89.6,6.52,6.52,0,0,0-1.36.77,6.06,6.06,0,0,0-.83.77h-.19V16.74a4.18,4.18,0,0,1,.4-1.74,4.65,4.65,0,0,1,1.3-1.65,7.05,7.05,0,0,1,2.32-1.21,11.55,11.55,0,0,1,3.46-.45,12,12,0,0,1,3.31.44,6.91,6.91,0,0,1,2.78,1.5,7.45,7.45,0,0,1,1.92,2.85,12,12,0,0,1,.72,4.47Zm-5-1.95H225.1a14.12,14.12,0,0,0-2.43.17,5,5,0,0,0-1.55.49,2,2,0,0,0-.77.82,2.73,2.73,0,0,0-.22,1.12,2.19,2.19,0,0,0,.91,1.9,4.46,4.46,0,0,0,2.64.66q3.28,0,3.29-3.17Z" transform="translate(-0.07)"/><path class="cls-1" d="M247.18,29.83a2.94,2.94,0,0,1-.86,2.39,3.94,3.94,0,0,1-2.58.71,6.7,6.7,0,0,1-4.9-1.64,6.44,6.44,0,0,1-1.67-4.79V5.16h1.46a3.53,3.53,0,0,1,2.82,1,3.63,3.63,0,0,1,.86,2.46V26a2.42,2.42,0,0,0,.83,2.14,4.63,4.63,0,0,0,2.65.57h1.39Z" transform="translate(-0.07)"/><path class="cls-2" d="M65.8,53a3.4,3.4,0,0,1-1.39-1l.83-1.11a4.16,4.16,0,0,0,1.08.77,2.71,2.71,0,0,0,1.12.27,2.18,2.18,0,0,0,1.12-.27.92.92,0,0,0,.43-.83,1,1,0,0,0-.27-.7,1.66,1.66,0,0,0-.61-.4L67,49.39c-1.46-.47-2.19-1.29-2.19-2.49a2.45,2.45,0,0,1,.77-1.84,3.07,3.07,0,0,1,2.22-.77,5.49,5.49,0,0,1,1.61.22,4,4,0,0,1,1.3.73l-.77,1.17a2.36,2.36,0,0,0-.84-.55,2.6,2.6,0,0,0-.95-.23,1.76,1.76,0,0,0-1,.28.86.86,0,0,0-.41.77.87.87,0,0,0,.26.65,1.84,1.84,0,0,0,.57.38l1.13.38a4.27,4.27,0,0,1,1.64.91,2,2,0,0,1,.59,1.54,2.65,2.65,0,0,1-.84,2,3.42,3.42,0,0,1-2.45.77A4.84,4.84,0,0,1,65.8,53Z" transform="translate(-0.07)"/><path class="cls-2" d="M82.74,44.8a4.07,4.07,0,0,1,1.54,1.62,5,5,0,0,1,.56,2.41,4.63,4.63,0,0,1-.6,2.36,4,4,0,0,1-1.65,1.55,4.93,4.93,0,0,1-2.32.55,3.89,3.89,0,0,1-1.77-.4,3.5,3.5,0,0,1-1.36-1.08v5.41h-2V44.45h1.68L77,45.89a5.26,5.26,0,0,1,1.54-1.19,4.47,4.47,0,0,1,2-.45A4.05,4.05,0,0,1,82.74,44.8Zm-1.39,6.59a2.92,2.92,0,0,0,1.1-1,2.81,2.81,0,0,0,.41-1.49,3.1,3.1,0,0,0-.38-1.55A2.83,2.83,0,0,0,80,45.83a3,3,0,0,0-1.87.61,2.85,2.85,0,0,0-1,1.64V49.5A2.55,2.55,0,0,0,78,51.12a2.76,2.76,0,0,0,1.83.64,3.26,3.26,0,0,0,1.5-.34Z" transform="translate(-0.07)"/><path class="cls-2" d="M89.16,40.76a1.2,1.2,0,0,1,.77-.31,1.11,1.11,0,0,1,.77.31,1,1,0,0,1,.34.77,1,1,0,0,1-.34.77,1.09,1.09,0,0,1-1.54,0,1,1,0,0,1,0-1.54Zm1.71,3.86v8.53H89V44.6Z" transform="translate(-0.07)"/><path class="cls-2" d="M101.33,53.09a5.23,5.23,0,0,1-1.62.26,5.14,5.14,0,0,1-2.44-.56,4,4,0,0,1-1.66-1.54A4.65,4.65,0,0,1,95,48.88,4.21,4.21,0,0,1,97.3,45a4.63,4.63,0,0,1,2.22-.56,4.91,4.91,0,0,1,3.24,1.07l-1,1.27a3.85,3.85,0,0,0-1-.53,3,3,0,0,0-1.15-.22,2.67,2.67,0,0,0-1.4.39,2.62,2.62,0,0,0-1,1A3,3,0,0,0,97,48.85a2.85,2.85,0,0,0,.39,1.46,3,3,0,0,0,4.39.83l1,1.2A4.67,4.67,0,0,1,101.33,53.09Z" transform="translate(-0.07)"/><path class="cls-2" d="M112.82,51l.89,1.43a6.3,6.3,0,0,1-1.48.71,5.23,5.23,0,0,1-4-.34,4,4,0,0,1-1.63-1.62,4.69,4.69,0,0,1-.58-2.31,4.39,4.39,0,0,1,.62-2.32,4.64,4.64,0,0,1,1.73-1.65,4.79,4.79,0,0,1,2.4-.61,4.15,4.15,0,0,1,2.82,1A5,5,0,0,1,115.1,48l-6.77,2.38a2.6,2.6,0,0,0,1,1,2.88,2.88,0,0,0,1.44.36A3.54,3.54,0,0,0,112.82,51Zm-4.17-4.36a3,3,0,0,0-.77,2.11v.47l5-1.83A2.9,2.9,0,0,0,112,46.2a2.37,2.37,0,0,0-1.41-.43,2.54,2.54,0,0,0-1.95.83Z" transform="translate(-0.07)"/><path class="cls-2" d="M135,44.6v8.55H133.3l-.13-1.64a3.32,3.32,0,0,1-1.34,1.41,3.79,3.79,0,0,1-2,.55,2.68,2.68,0,0,1-1.93-.71,2.56,2.56,0,0,1-.78-1.84V44.6H129v5.6a1.86,1.86,0,0,0,.43,1.15,1.51,1.51,0,0,0,1.14.44,2.18,2.18,0,0,0,1.28-.42,2.86,2.86,0,0,0,.92-1.17,3.9,3.9,0,0,0,.34-1.65V44.6Z" transform="translate(-0.07)"/><path class="cls-2" d="M147.54,44.8a4,4,0,0,1,1.54,1.62,4.91,4.91,0,0,1,.56,2.41,4.63,4.63,0,0,1-.59,2.36,4.13,4.13,0,0,1-1.66,1.55,4.9,4.9,0,0,1-2.35.55,3.9,3.9,0,0,1-1.78-.4,3.57,3.57,0,0,1-1.36-1.08v5.41H140V44.45h1.67l.17,1.44a5.26,5.26,0,0,1,1.54-1.19,4.47,4.47,0,0,1,2-.45A4.16,4.16,0,0,1,147.54,44.8Zm-1.39,6.59a3,3,0,0,0,1.1-1,2.73,2.73,0,0,0,.41-1.49,2.9,2.9,0,0,0-.38-1.55,2.68,2.68,0,0,0-1-1.07,2.8,2.8,0,0,0-1.47-.4,2.91,2.91,0,0,0-1.86.61,2.8,2.8,0,0,0-1,1.64V49.5a2.54,2.54,0,0,0,.93,1.62,2.78,2.78,0,0,0,1.83.64,3.07,3.07,0,0,0,1.46-.34Z" transform="translate(-0.07)"/><path class="cls-2" d="M169.94,44.6l-5.52,12.65h-1.9l2-4.4-4-8.25h2.17l2.77,6.08,2.7-6.08Z" transform="translate(-0.07)"/><path class="cls-2" d="M173.14,46.48a4.3,4.3,0,0,1,1.69-1.64,5,5,0,0,1,2.44-.59,4.85,4.85,0,0,1,2.42.59,4.26,4.26,0,0,1,1.66,1.63,4.84,4.84,0,0,1,0,4.64,4.29,4.29,0,0,1-1.66,1.64,5,5,0,0,1-2.46.6,5.1,5.1,0,0,1-2.42-.57,4.06,4.06,0,0,1-1.67-1.59,4.59,4.59,0,0,1-.61-2.4A4.46,4.46,0,0,1,173.14,46.48Zm1.69,3.82a2.76,2.76,0,0,0,1,1.07,2.75,2.75,0,0,0,3.39-.45,3,3,0,0,0,.77-2.11,3.05,3.05,0,0,0-.77-2.12,2.71,2.71,0,0,0-3.39-.46,3,3,0,0,0-1,1.09,3.26,3.26,0,0,0,0,3Z" transform="translate(-0.07)"/><path class="cls-2" d="M194,44.6v8.55h-1.73l-.12-1.64a3.44,3.44,0,0,1-1.37,1.41,3.79,3.79,0,0,1-2,.55,2.69,2.69,0,0,1-1.93-.71,2.51,2.51,0,0,1-.77-1.84V44.6H188v5.6a1.79,1.79,0,0,0,.42,1.15,1.53,1.53,0,0,0,1.15.44,2.18,2.18,0,0,0,1.28-.42,2.93,2.93,0,0,0,.92-1.17,4.06,4.06,0,0,0,.34-1.65V44.6Z" transform="translate(-0.07)"/><path class="cls-2" d="M201.71,45.38a4.71,4.71,0,0,1,1.29-.82,3.28,3.28,0,0,1,1.19-.31l-.08,1.92a3.05,3.05,0,0,0-1.68.37,2.9,2.9,0,0,0-1.18,1.15,3,3,0,0,0-.42,1.54v3.91h-1.92V44.6h1.71l.14,2A3.84,3.84,0,0,1,201.71,45.38Z" transform="translate(-0.07)"/><path class="cls-2" d="M218.21,37.14v16h-1.93v-16Z" transform="translate(-0.07)"/><path class="cls-2" d="M223.31,40.76a1.12,1.12,0,0,1,.77-.31,1.09,1.09,0,0,1,.77.31,1,1,0,0,1,.34.77.92.92,0,0,1-.34.77,1.1,1.1,0,0,1-.77.32,1.18,1.18,0,0,1-.77-.32,1,1,0,0,1-.35-.77A1,1,0,0,1,223.31,40.76ZM225,44.62v8.53H223.1V44.6Z" transform="translate(-0.07)"/><path class="cls-2" d="M230.62,46.34h-1.47V44.57h1.47V41a4.24,4.24,0,0,1,.85-2.85,3.08,3.08,0,0,1,2.48-1,3.91,3.91,0,0,1,1,.14,3,3,0,0,1,.91.38l-.82,1.4a1.17,1.17,0,0,0-.87-.33,1.42,1.42,0,0,0-1.19.54,2.93,2.93,0,0,0-.4,1.74v3.56h2.73v1.77h-2.73v6.84h-1.92Z" transform="translate(-0.07)"/><path class="cls-2" d="M244.93,51l.88,1.43a6.12,6.12,0,0,1-1.48.71,5.21,5.21,0,0,1-4-.34,4.06,4.06,0,0,1-1.64-1.62,4.69,4.69,0,0,1-.58-2.31,4.4,4.4,0,0,1,.63-2.32,4.62,4.62,0,0,1,1.72-1.65,4.82,4.82,0,0,1,2.4-.61,4.11,4.11,0,0,1,2.79,1A5,5,0,0,1,247.18,48l-6.78,2.38a2.69,2.69,0,0,0,1,1,2.87,2.87,0,0,0,1.43.36A3.57,3.57,0,0,0,244.93,51Zm-4.17-4.36a3,3,0,0,0-.77,2.11v.47l5-1.83a2.9,2.9,0,0,0-.88-1.17,2.38,2.38,0,0,0-1.42-.43,2.54,2.54,0,0,0-1.91.83Z" transform="translate(-0.07)"/><path class="cls-3" d="M37,.77,34.94,0,31.3,9C19.22,4.51,6,9.66,1.56,20.76s1.38,24,13.13,29.2L11,59.05l2.11.83A31.88,31.88,0,0,0,37,.77ZM28.73,15.32l-5.4,13.3L8.77,22.75C12.16,15.73,20.76,12.52,28.73,15.32ZM7.78,25.66v.16l14.35,5.76-2,4.89-2.88,7.12C10.06,40.26,6.14,32.7,7.78,25.66ZM17.62,51,25,32.76l18.49,7.4A22,22,0,0,1,17.62,51ZM44.81,37.26,26.28,29.78l7.87-19.4A22,22,0,0,1,44.81,37.26Z" transform="translate(-0.07)"/><path class="cls-2" d="M256.42,8.16a1.52,1.52,0,0,1,.08-.77,1.32,1.32,0,0,1,1.09-.78,6.63,6.63,0,0,1,6.12,1.86,10.57,10.57,0,0,1,2.71,6.28q1,9.06-3.8,14.26,7.13,3.94,7.28,11.31.17,8.13-9.76,13a1.55,1.55,0,0,1-1.86-.31,1.51,1.51,0,0,1-.54-1.7A1.4,1.4,0,0,1,257,50Q257.67,22.12,256.42,8.16Zm6.82,8.68c.11-4.18-1.06-6.56-3.49-7.13q.63,8.37.7,16.74Q263.09,23.12,263.24,16.84Zm-2.71,14.64c0,2.48,0,4.4-.08,5.74,0,2.84,0,5.09-.08,6.74s-.07,3.48-.07,5.65q7-4.09,6.43-9.29A11,11,0,0,0,260.53,31.48Z" transform="translate(-0.07)"/><path class="cls-2" d="M284.41,44.27a1.41,1.41,0,0,1,1.93,1.16,1.35,1.35,0,0,1-1.08,1.94q-6.12,1.4-9.45,1.86a1.53,1.53,0,0,1-1.48-.55,1.45,1.45,0,0,1-.46-1.39.32.32,0,0,1-.08-.23l-1-18.13c0-1.4-.07-4.44-.23-9.14a84,84,0,0,1,0-9.07c0-1,.54-1.55,1.63-1.55a1.37,1.37,0,0,1,1.55,1.55q-.24,11.16,1.24,35.1Z" transform="translate(-0.07)"/><path class="cls-2" d="M299.44,25.18a16,16,0,0,1-.85,10.93c-1.24,3.15-2.9,5.22-5,6.2q-4.26,2.09-7.29-.62a8.76,8.76,0,0,1-2.78-7.36q.54-9.84,7.12-13.18a2.28,2.28,0,0,1,.93-.54Q297.58,19.53,299.44,25.18Zm-2.87,5.58q.93-6.27-2.4-7a4,4,0,0,0-1.55,0l-.31.23a7.88,7.88,0,0,0-3.87,3.88,14.1,14.1,0,0,0-1.63,5.81c-.1,2.74.28,4.54,1.16,5.42q3.18,2.25,6-1.24C295.26,36.31,296.11,34,296.57,30.76Z" transform="translate(-0.07)"/><path class="cls-2" d="M302.85,27.35q.38-9.84,7.12-13.17a1.65,1.65,0,0,1,.93-.54,6.88,6.88,0,0,1,3.26,0A19.43,19.43,0,0,1,317,10.15a1.4,1.4,0,0,1,2.24.08,1.43,1.43,0,0,1,0,2.25A27.54,27.54,0,0,0,317,15.19q3.41,3.48,1.86,10.69t-6,9.45a6.12,6.12,0,0,1-2.48.78.94.94,0,0,1-.39.23,27.11,27.11,0,0,1-3.64,1.7,9.52,9.52,0,0,0,2,1.4l5.11,2.4q5,2.47,6,4.34a2.17,2.17,0,0,1,.47,1.7q-.32,5.67-14.8,6.2-1.47,0-1.47-1.62c0-1,.49-1.55,1.47-1.55q7.36-.39,10.31-1.94,2.4-1.32-1.17-3.1a17,17,0,0,0-2.79-1.39l-5-2.33-.93-.54c-1.45-1.09-2.25-2.09-2.4-3q-.56-2.18,2.4-4A8.09,8.09,0,0,1,302.85,27.35Zm4.41,4.73q3,2.47,6.05-1.24,1.86-2.25,2.55-7,.93-6.27-2.4-7a4,4,0,0,0-1.55,0,.53.53,0,0,1-.39.15q-4.95,2.1-5.42,9.69C305.89,29.26,306.28,31.1,307.26,32.08Z" transform="translate(-0.07)"/></svg>
