<?xml version="1.0" encoding="utf-8"?>
<!-- Generator: Adobe Illustrator 23.0.0, SVG Export Plug-In . SVG Version: 6.00 Build 0)  -->
<svg version="1.1" id="Capa_1" xmlns="http://www.w3.org/2000/svg" xmlns:xlink="http://www.w3.org/1999/xlink" x="0px" y="0px"
	 viewBox="0 0 64 64" style="enable-background:new 0 0 64 64;" xml:space="preserve">
<g>
	<path d="M20.8,35.9c-1,0-1.9,0.8-1.9,1.9v13.7c0,1,0.8,1.9,1.9,1.9s1.9-0.8,1.9-1.9V37.7C22.6,36.7,21.8,35.9,20.8,35.9z"/>
	<path d="M32,35.9c-1,0-1.9,0.8-1.9,1.9v13.7c0,1,0.8,1.9,1.9,1.9s1.9-0.8,1.9-1.9V37.7C33.9,36.7,33,35.9,32,35.9z"/>
	<path d="M43.2,35.9c-1,0-1.9,0.8-1.9,1.9v13.7c0,1,0.8,1.9,1.9,1.9s1.9-0.8,1.9-1.9V37.7C45.1,36.7,44.3,35.9,43.2,35.9z"/>
	<path d="M63,25.7L63,25.7c-0.8-1.1-2.1-1.7-3.5-1.7H47.2L33.8,3.6c-0.4-0.9-1.5-1.4-2.5-1c-0.9,0.4-1.4,1.5-1,2.5L43.2,24H20.8
		L33.6,5.1c0.4-0.9,0-2.1-1-2.5c-0.9-0.4-2.1,0-2.5,1L16.8,24H4.4c-1.4,0-2.6,0.6-3.5,1.7c-0.8,1-1.1,2.4-0.8,3.7l6.6,28.7
		c0.5,2,2.2,3.4,4.3,3.4h42c2.1,0,3.9-1.4,4.3-3.4l6.6-28.8C64.2,28,63.9,26.7,63,25.7z M60.2,28.5l-6.6,28.7
		c-0.1,0.3-0.3,0.5-0.7,0.5v0H11c-0.3,0-0.6-0.2-0.7-0.5L3.8,28.5c-0.1-0.2,0-0.4,0.1-0.5c0.1-0.1,0.2-0.3,0.5-0.3h7.2h3.5h33.8h6
		h4.7c0.3,0,0.5,0.2,0.5,0.3C60.2,28.1,60.3,28.3,60.2,28.5z"/>
</g>
</svg>
