<?xml version="1.0" encoding="utf-8"?>
<!-- Generator: Adobe Illustrator 26.0.1, SVG Export Plug-In . SVG Version: 6.00 Build 0)  -->
<svg version="1.1" id="Layer_1" xmlns="http://www.w3.org/2000/svg" xmlns:xlink="http://www.w3.org/1999/xlink" x="0px" y="0px"
	 viewBox="0 0 600 333.3" style="enable-background:new 0 0 600 333.3;" xml:space="preserve">
<style type="text/css">
	.st0{fill-rule:evenodd;clip-rule:evenodd;fill:#FFFFFF;}
</style>
<path class="st0" d="M46.1,0.4h508.8c25.2,0,45.6,20.4,45.6,45.6v242.2c0,25.2-20.4,45.6-45.6,45.6H46.1
	c-25.2,0-45.6-20.4-45.6-45.6V46C0.5,20.8,20.9,0.4,46.1,0.4z"/>
<g transform="translate(20 29)">
	<path d="M137.5,75.3c5.1-6.4,8.5-14.9,7.6-23.6c-7.4,0.4-16.5,4.9-21.8,11.3c-4.7,5.5-8.9,14.4-7.8,22.7
		C123.9,86.3,132.2,81.4,137.5,75.3 M145,87.2c-12.1-0.7-22.5,6.9-28.3,6.9c-5.8,0-14.7-6.5-24.3-6.3C80,88,68.4,95,62,106.3
		c-13,22.5-3.4,55.8,9.2,74.1c6.2,9.1,13.6,19,23.4,18.7c9.2-0.4,12.9-6,24.1-6c11.2,0,14.5,6,24.3,5.8c10.1-0.2,16.5-9.1,22.6-18.1
		c7.1-10.3,10-20.3,10.1-20.8c-0.2-0.2-19.6-7.6-19.7-29.9c-0.2-18.7,15.2-27.5,15.9-28.1C163.3,89.1,149.7,87.6,145,87.2"/>
	<path d="M266,62c26.4,0,44.8,18.2,44.8,44.7c0,26.6-18.7,44.9-45.4,44.9h-29.2V198h-21.1V62L266,62z M236.2,133.8h24.2
		c18.4,0,28.8-9.9,28.8-27c0-17.1-10.5-26.9-28.7-26.9h-24.3V133.8z M316,169.8c0-17.4,13.3-27.4,37.8-28.9l26.3-1.6v-7.5
		c0-11-7.3-17.1-20.2-17.1c-10.6,0-18.4,5.5-20,13.9h-19c0.6-17.6,17.1-30.4,39.6-30.4c24.1,0,39.9,12.6,39.9,32.2V198h-19.5v-16.3
		h-0.5c-5.6,10.6-17.8,17.3-31.1,17.3C329.7,199,316,187.3,316,169.8z M380.1,161v-7.6l-23.5,1.5c-13.2,0.8-20.1,5.7-20.1,14.3
		c0,8.3,7.2,13.7,18.4,13.7C369.3,182.9,380.1,173.7,380.1,161z M418.3,234.3V218c1.3,0.2,4.5,0.4,6.2,0.4c9.3,0,14.6-4,17.8-14.1
		l1.9-6l-35.7-98.9h22l24.9,80.3h0.5l24.9-80.3h21.5l-37,103.9c-8.5,23.8-18.2,31.7-38.7,31.7C424.9,234.9,419.7,234.7,418.3,234.3
		L418.3,234.3z"/>
</g>
</svg>
