<?xml version="1.0" encoding="utf-8"?>
<!-- Generator: Adobe Illustrator 26.0.1, SVG Export Plug-In . SVG Version: 6.00 Build 0)  -->
<svg version="1.1" id="Layer_1" xmlns="http://www.w3.org/2000/svg" xmlns:xlink="http://www.w3.org/1999/xlink" x="0px" y="0px"
	 viewBox="0 0 600 333.3" style="enable-background:new 0 0 600 333.3;" xml:space="preserve">
<style type="text/css">
	.st0{fill-rule:evenodd;clip-rule:evenodd;fill:#FFB3C7;}
	.st1{fill-rule:evenodd;clip-rule:evenodd;fill:#0A0B09;}
</style>
<path class="st0" d="M45.6,0h508.8C579.6,0,600,20.4,600,45.6v242.2c0,25.2-20.4,45.6-45.6,45.6H45.6C20.5,333.4,0,313,0,287.8V45.6
	C0,20.4,20.5,0,45.6,0z"/>
<g>
	<path class="st1" d="M543.9,195.7c-7.8,0-14.2,6.4-14.2,14.3c0,7.9,6.4,14.3,14.2,14.3c7.8,0,14.2-6.4,14.2-14.3
		C558.1,202.1,551.7,195.7,543.9,195.7L543.9,195.7z M497.1,184.6c0-10.8-9.2-19.6-20.5-19.6s-20.5,8.8-20.5,19.6
		c0,10.8,9.2,19.6,20.5,19.6S497.1,195.4,497.1,184.6z M497.2,146.4h22.6v76.3h-22.6v-4.9c-6.4,4.4-14.1,7-22.4,7
		c-22,0-39.9-18-39.9-40.3s17.9-40.3,39.9-40.3c8.3,0,16.1,2.6,22.4,7V146.4L497.2,146.4z M316,156.4v-9.9h-23.2v76.3H316v-35.6
		c0-12,12.9-18.5,21.9-18.5c0.1,0,0.2,0,0.3,0v-22.2C328.9,146.4,320.5,150.4,316,156.4L316,156.4z M258.2,184.6
		c0-10.8-9.2-19.6-20.5-19.6c-11.3,0-20.5,8.8-20.5,19.6c0,10.8,9.2,19.6,20.5,19.6C249,204.2,258.2,195.4,258.2,184.6z
		 M258.3,146.4h22.6v76.3h-22.6v-4.9c-6.4,4.4-14.1,7-22.4,7c-22,0-39.9-18-39.9-40.3s17.9-40.3,39.9-40.3c8.3,0,16.1,2.6,22.4,7
		V146.4L258.3,146.4z M394.6,144.4c-9,0-17.6,2.8-23.3,10.7v-8.6h-22.5v76.3h22.8v-40.1c0-11.6,7.7-17.3,17-17.3
		c10,0,15.7,6,15.7,17.1v40.3h22.6v-48.5C426.8,156.5,412.8,144.4,394.6,144.4L394.6,144.4z M162.9,222.8h23.7V112.4h-23.7V222.8z
		 M58.8,222.8h25.1V112.4H58.8V222.8z M146.6,112.4c0,23.9-9.2,46.1-25.7,62.7l34.7,47.7h-31l-37.7-51.9l9.7-7.4
		c16.1-12.2,25.4-30.8,25.4-51.2L146.6,112.4L146.6,112.4z"/>
</g>
</svg>
