<?xml version="1.0" encoding="utf-8"?>
<!-- Generator: Adobe Illustrator 26.0.1, SVG Export Plug-In . SVG Version: 6.00 Build 0)  -->
<svg version="1.1" id="Layer_1" xmlns="http://www.w3.org/2000/svg" xmlns:xlink="http://www.w3.org/1999/xlink" x="0px" y="0px"
	 viewBox="0 0 600 333.3" style="enable-background:new 0 0 600 333.3;" xml:space="preserve">
<style type="text/css">
	.st0{fill-rule:evenodd;clip-rule:evenodd;fill:#B9E8FF;}
	.st1{fill-rule:evenodd;clip-rule:evenodd;fill:#0079C1;}
	.st2{fill-rule:evenodd;clip-rule:evenodd;fill:#00457C;}
</style>
<path class="st0" d="M45.6,0h508.8C579.6,0,600,20.4,600,45.6v242.2c0,25.2-20.4,45.6-45.6,45.6H45.6C20.4,333.3,0,312.9,0,287.7
	V45.6C0,20.4,20.4,0,45.6,0z"/>
<g>
	<path class="st1" d="M391.5,137.8c-2.2,14.1-13,14.1-23.5,14.1h-6l4.2-26.3c0.2-1.6,1.6-2.8,3.3-2.8h2.7c7.1,0,13.9,0,17.4,4
		C391.7,129.3,392.3,132.9,391.5,137.8 M387,101h-39.6c-2.7,0-5,1.9-5.4,4.6l-16,100.7c-0.3,1.8,1,3.5,2.8,3.7c0.2,0,0.3,0,0.5,0
		h20.3c1.9,0,3.5-1.4,3.8-3.2l4.5-28.6c0.4-2.7,2.7-4.6,5.4-4.6h12.5c26,0,41.1-12.5,45-37.3c1.8-10.9,0.1-19.4-5-25.4
		C410.2,104.5,400.2,101,387,101"/>
	<path class="st2" d="M109.5,137.8c-2.2,14.1-13,14.1-23.5,14.1h-6l4.2-26.3c0.2-1.6,1.6-2.8,3.3-2.8h2.7c7.1,0,13.9,0,17.4,4
		C109.6,129.3,110.2,132.9,109.5,137.8 M104.9,101H65.3c-2.7,0-5,1.9-5.4,4.6l-16,100.7c-0.3,1.8,1,3.5,2.8,3.7c0.2,0,0.3,0,0.5,0
		h18.9c2.7,0,5-2,5.4-4.6l4.3-27.2c0.4-2.7,2.7-4.6,5.4-4.6h12.5c26,0,41.1-12.5,45-37.3c1.8-10.9,0.1-19.4-5-25.4
		C128.1,104.5,118.1,101,104.9,101 M196.7,174c-1.8,10.7-10.4,18-21.4,18c-5.5,0-9.9-1.8-12.7-5.1c-2.8-3.3-3.9-8-3-13.2
		c1.5-10.5,10.6-18.3,21.2-18.1c5.4,0,9.7,1.8,12.6,5.1C196.4,164,197.5,168.8,196.7,174 M223.1,137.3h-18.9c-1.6,0-3,1.2-3.3,2.8
		l-0.8,5.3l-1.3-1.9c-4.1-5.9-13.2-7.9-22.4-7.9c-20.9,0-38.8,15.7-42.3,37.8c-1.8,11,0.8,21.6,7.1,28.9c5.8,6.8,14,9.6,23.8,9.6
		c16.9,0,26.2-10.8,26.2-10.8l-0.8,5.2c-0.3,1.8,0.9,3.5,2.7,3.7c0.2,0,0.3,0,0.5,0h17.1c2.7,0,5-2,5.4-4.6l10.2-64.4
		c0.3-1.8-0.9-3.5-2.7-3.7C223.4,137.4,223.3,137.3,223.1,137.3"/>
	<path class="st1" d="M478.8,174c-1.8,10.7-10.4,18-21.4,18c-5.5,0-9.9-1.8-12.7-5.1c-2.8-3.3-3.9-8-3-13.2
		c1.5-10.5,10.6-18.3,21.2-18.1c5.4,0,9.7,1.8,12.6,5.1C478.5,164,479.6,168.8,478.8,174 M505.2,137.3h-18.9c-1.6,0-3,1.2-3.3,2.8
		l-0.8,5.3l-1.3-1.9c-4.1-5.9-13.2-7.9-22.4-7.9c-20.9,0-38.8,15.7-42.3,37.8c-1.8,11,0.8,21.6,7,28.9c5.8,6.8,14,9.6,23.8,9.6
		c16.9,0,26.2-10.8,26.2-10.8l-0.8,5.2c-0.3,1.8,0.9,3.5,2.7,3.7c0.2,0,0.3,0,0.5,0h17.1c2.7,0,5-2,5.4-4.6l10.2-64.4
		c0.3-1.8-0.9-3.5-2.7-3.7C505.5,137.4,505.3,137.3,505.2,137.3"/>
	<path class="st2" d="M324,137.3h-19c-1.8,0-3.5,0.9-4.5,2.4l-26.3,38.4L263,141.2c-0.7-2.3-2.8-3.9-5.3-3.9H239
		c-1.8,0-3.3,1.4-3.3,3.3c0,0.4,0.1,0.7,0.2,1.1l21,61.1l-19.7,27.6c-1,1.5-0.7,3.5,0.8,4.6c0.6,0.4,1.2,0.6,1.9,0.6h19
		c1.8,0,3.5-0.9,4.5-2.3l63.3-90.8c1-1.5,0.7-3.5-0.8-4.6C325.3,137.5,324.6,137.3,324,137.3"/>
	<path class="st1" d="M527.5,103.8l-16.2,102.6c-0.3,1.8,1,3.5,2.8,3.7c0.2,0,0.3,0,0.5,0h16.3c2.7,0,5-2,5.4-4.6l16-100.7
		c0.3-1.8-0.9-3.5-2.7-3.7c-0.2,0-0.3,0-0.5,0h-18.3C529.1,101,527.7,102.2,527.5,103.8"/>
</g>
</svg>
