<svg xmlns="http://www.w3.org/2000/svg" viewBox="0 0 100 100"><defs><style>.a{fill:#af88ad;}.b{fill:#fff;}</style></defs><title>features 2</title><path class="a" d="M37.8,26a20.8,20.8,0,0,0,2.8,21.3C43.4,33.1,56.8,22,57.4,7.5A29.5,29.5,0,0,0,65.2,32c3.2,3.3,7.2,5.8,10.5,9.1C85.9,51,88.6,67.7,82.1,80.4S60.5,100.6,46.5,98.3s-25.8-14.4-28-28.5c-2.4-15.9,6.7-31.4,17.8-43.1"/><path class="b" d="M33,20a21.8,21.8,0,0,0,3,22.7,1.1,1.1,0,0,0,2-.5C41,27.7,54.2,17.3,54.9,2.1c0-1.4-2.3-1.7-2.5-.3a31.3,31.3,0,0,0,4.2,20.5,37.4,37.4,0,0,0,7.5,8.4c2.9,2.4,6,4.6,8.5,7.4C81.3,47.9,83.2,63.4,77,75A33.6,33.6,0,0,1,44.2,91.8C31.2,90.2,20,79.9,16.7,67.4c-4-14.9,3.6-29.9,13-41,1.2-1.5,2.5-2.8,3.7-4.2a1.2,1.2,0,0,0-1.7-1.8C21.1,31.5,11.9,46.3,13.3,62.2,14.4,75.9,24.1,88,36.9,92.6S65,92.9,74.2,83s11.3-25.7,5.6-38.3a33,33,0,0,0-5.7-8.6c-2.7-3-6-5.3-9.1-7.9A29,29,0,0,1,54.6,8a35.4,35.4,0,0,1,.2-5.6l-2.4-.3c-.4,7.3-4,13.7-7.7,19.8s-7.6,12.5-9.1,19.6l2.1-.5a19.5,19.5,0,0,1-2.6-19.7c.7-1.5-1.5-2.8-2.1-1.3Z"/><path class="b" d="M49.6,48.9A42.8,42.8,0,0,0,35,66.9c-2.9,6.9-4.6,16.6.9,22.7s13.3,6.2,19.5,2.7,8.9-11.5,6.9-18.4a16.1,16.1,0,0,0-2.7-5.2,26.1,26.1,0,0,0-4.5-4.3c-1.8-1.5-3.4-3.1-4-5.4s-.3-5.2.1-7.7-2.2-2.2-2.5-.6c-.5,3.8-1,7.8,1,11.3s4.8,4.8,7.1,7.2a14.1,14.1,0,0,1,.8,18.1c-4.1,4.8-11.7,6.2-17.1,2.9C33.4,86,34.2,76.8,36.4,70A39.8,39.8,0,0,1,50.9,51.1c1.3-.9.1-3.1-1.3-2.2Z"/></svg>