<svg xmlns="http://www.w3.org/2000/svg" viewBox="0 0 100 100"><defs><style>.a{fill:#9bc6c5;}.b{fill:#fff;}</style></defs><title>FEATURES</title><path class="a" d="M34.3,89.1c1.8-2.4,3.9-4.9,6.8-5.3s3.1.3,4.6.1c3.1-.6,4.9-4,5.6-7.1s.9-4.2,2.4-5.5,4.6-1,6.9-1.7a7.1,7.1,0,0,0,4-3.6c.8-1.9.8-4.3,2.2-5.8s4.9-1.4,7.2-2.6c5.3-2.8,3.8-11.8,8.9-14.9,1.1-.6,2.5-.9,3.7-1.5a10.8,10.8,0,0,0,4.9-5.6,32,32,0,0,0,1.8-7.4,9.6,9.6,0,0,1,.8-2.9A21.1,21.1,0,0,1,96,23a10.2,10.2,0,0,0-.8-13.2l-.5-.5a10.1,10.1,0,0,0-13.2-.8,13.7,13.7,0,0,1-2.4,1.8,8.4,8.4,0,0,1-2.8.9A30.8,30.8,0,0,0,68.9,13a10.4,10.4,0,0,0-5.6,4.9c-.6,1.2-.9,2.5-1.6,3.7-3,5-12.1,3.6-14.8,8.8-1.2,2.3-.8,5.4-2.7,7.2s-3.8,1.5-5.7,2.3a6.8,6.8,0,0,0-3.6,4c-.7,2.2-.3,5-1.8,6.8s-3.5,2-5.4,2.4-6.6,2.5-7.1,5.7c-.3,1.5.2,3.1,0,4.6s-2.8,5-5.2,6.8"/><path class="a" d="M8.1,77.3l7.4-7.4-8.4,8,1.6,1.2-4,4L20.6,99l4-4,3.1,2.6,6.1-8.2L15.1,70.7"/><path class="b" d="M20.7,89.1l-3.8,3.8a1.1,1.1,0,0,0,0,1.3,1,1,0,0,0,1.4,0l3.8-3.7a1,1,0,0,0-1.4-1.4Z"/><path class="b" d="M32.4,85.1a13.6,13.6,0,0,1,4.4-4.2c2.2-1.1,4.5,0,6.8-.6s5.3-4.7,6.1-8,.8-4.3,2.9-5.2,4-.4,5.9-1.2a7.3,7.3,0,0,0,4-3.5c.9-1.7.9-4,2-5.6s3.6-1.6,5.4-2.1a7.5,7.5,0,0,0,4-2.4c2-2.4,2.6-5.5,3.6-8.3a9.1,9.1,0,0,1,2.1-4c1.4-1.4,3.4-1.7,5.1-2.6,3.8-2,5.5-6.3,6.3-10.3.5-2.3.4-4.9,2-6.7a15.3,15.3,0,0,0,2.8-4.5A11.2,11.2,0,0,0,94.3,6a11.9,11.9,0,0,0-7.8-4.9,11.6,11.6,0,0,0-5.2.5,16.2,16.2,0,0,0-4.5,2.8C75,6,72.2,5.9,70,6.4a17.9,17.9,0,0,0-6.2,2.3,11.2,11.2,0,0,0-4,4.1c-.9,1.7-1.1,3.7-2.6,5s-5.7,2.5-8.5,3.6-5.3,2.9-6.1,6.2c-.4,1.8-.5,4.2-2.3,5.3s-3.7,1-5.4,1.9a7.3,7.3,0,0,0-3.5,4c-.7,1.9-.4,4.1-1.2,6S27,47.2,25,47.7a13.7,13.7,0,0,0-5,2.1,6.8,6.8,0,0,0-3,3.9c-.5,2.3.5,4.6-.5,6.8a13.9,13.9,0,0,1-4.3,4.4c-1,.8,0,2.5,1,1.7,3-2.3,5.9-4.9,5.7-9-.1-2.3-.3-4.2,1.6-5.8a13.1,13.1,0,0,1,5.1-2.3c1.7-.4,3.5-.7,4.9-1.9s1.9-3,2.1-4.8.5-4.1,2.2-5.5,3.6-1.5,5.5-2.2a6,6,0,0,0,3.3-3.5c.7-1.8.7-3.7,1.6-5.4s4.9-3.2,7.6-4.1,5.5-1.9,7.1-4.5,1.3-3.9,2.7-5.5a12.3,12.3,0,0,1,5.5-3.2c2.2-.7,4.5-.9,6.8-1.4s3.2-1.8,4.9-3a9.3,9.3,0,0,1,10.1-.1,9.9,9.9,0,0,1,4.5,8.2,8.7,8.7,0,0,1-1.7,5.1c-.5.7-1.2,1.3-1.7,2.1a7,7,0,0,0-1.2,2.8c-.8,4.3-1.2,9.1-4.7,12.2-1.6,1.4-3.7,1.6-5.4,2.7a7.9,7.9,0,0,0-2.9,3.1c-1.5,2.6-1.9,5.7-3.1,8.4a6.6,6.6,0,0,1-2.6,3.1c-1.7,1-3.7,1-5.5,1.6A6.5,6.5,0,0,0,62.2,57c-.7,2-.8,4.1-2.3,5.7s-7.5,1-10.2,4.1S48,74,45.5,76.9s-3.5,1.6-5.7,1.5A7.8,7.8,0,0,0,34.5,80a24.6,24.6,0,0,0-3.8,4.1c-.7,1,1,2,1.7,1Z"/><path class="b" d="M11.7,66.9,30.4,85.7c.9.8,2.3-.5,1.4-1.4L13.1,65.5a1,1,0,0,0-1.4,1.4Z"/><path class="b" d="M4.7,73.7,23.4,92.3c.9.9,2.2-.5,1.4-1.3L6.1,72.3a1,1,0,0,0-1.4,1.4Z"/><path class="b" d="M2.6,80.3,16.3,94c.9.9,2.2-.5,1.4-1.4L4,78.9a1,1,0,0,0-1.4,1.4Z"/><path class="b" d="M12.1,64.8,4.7,72.2a1,1,0,0,0,1.4,1.4l7.4-7.4a1,1,0,0,0-1.4-1.4Z"/><path class="b" d="M6.7,74.5,2.5,78.7a1.1,1.1,0,0,0,0,1.4,1.2,1.2,0,0,0,1.4,0l4.2-4.2a1,1,0,1,0-1.4-1.4Z"/><path class="b" d="M31.3,84l-7.4,7.4c-.9.9.5,2.2,1.4,1.3l7.4-7.4c.8-.8-.5-2.2-1.4-1.3Z"/><path class="b" d="M82,55.8c-1,2.6-2.1,5.4-4.3,7.1s-4.7,1.7-6.9,3-3.1,3.7-3.7,6.3a9.4,9.4,0,0,1-5.4,6.3c-1.2.5-.2,2.1,1,1.7a11.5,11.5,0,0,0,5.7-5.8c.6-1.5.7-3,1.3-4.4a4.9,4.9,0,0,1,2.9-2.9c2.6-1,5.2-1.4,7.2-3.4s3.1-4.7,4.1-7.3-1.4-1.7-1.9-.6Z"/><path class="b" d="M83.4,72.3c-2.5,1-4.9,2.2-6.5,4.5S75,81.1,73,82.2a1,1,0,0,0,1,1.7c2.1-1.2,3-3.6,4.2-5.6S82,75,84.4,74a1,1,0,1,0-1-1.7Z"/><path class="b" d="M38.3,11.6c-2.6,1-5.3,2.1-7.3,4.2s-2.4,4.6-3.5,7.1a4.7,4.7,0,0,1-2.6,2.9c-1.5.6-3.1.7-4.6,1.3a11,11,0,0,0-5.8,5.8c-.5,1.1,1.2,2.1,1.7.9a9,9,0,0,1,6.1-5.3c2.7-.7,5.1-1.2,6.5-3.7S30.2,20,31.6,18s4.6-3.5,7.2-4.5.7-2.3-.5-1.9Z"/><path class="b" d="M20.7,11.1c-1,2.4-2.1,4.8-4.3,6.2s-4.4,2.1-5.7,4.3,1.1,2.1,1.7,1,3.7-2.7,5.4-3.9,3.5-4.1,4.6-6.6a1,1,0,0,0-.4-1.3.9.9,0,0,0-1.3.3Z"/></svg>