<svg xmlns="http://www.w3.org/2000/svg" viewBox="0 0 100 100"><defs><style>.a{fill:#d787ac;}.b{fill:none;stroke:#fff;stroke-miterlimit:10;stroke-width:2px;}.c{fill:#fff;}</style></defs><title>FEATURES</title><rect class="a" x="31.4" y="7.5" width="37.7" height="94.1" rx="7" transform="translate(53.3 -19.5) rotate(45)"/><rect class="a" x="75.9" y="13.4" width="21.1" height="9.1" rx="3.7" transform="translate(38 -55.9) rotate(45)"/><rect class="b" x="31.1" y="0.8" width="37.7" height="94.1" rx="8.5" transform="translate(48.5 -21.3) rotate(45)"/><rect class="b" x="75.7" y="6.7" width="21.1" height="9.1" rx="3.7" transform="translate(33.2 -57.7) rotate(45)"/><path class="c" d="M59.8,40.5,36.6,42.8c-.9.1-1.8,1.4-.9,2.1l6.8,5.4V48.6a133.7,133.7,0,0,0-11.8,12,1.3,1.3,0,0,0,.9,2.2,186.2,186.2,0,0,0,24.7-2.5,1.3,1.3,0,0,0,.6-2.1l-3.5-3.8-.9-.9s-.6-.8-.6-.6.5-.5.6-.6l1-1.2L60,43.2c1.1-1.2-.7-3-1.7-1.7-2.7,3.2-5.5,6.4-8.2,9.7-1.2,1.7-.6,2.8.7,4.1L55.1,60l.6-2.1a196.7,196.7,0,0,1-24.1,2.4l.9,2.1A134.8,134.8,0,0,1,44.3,50.3a1.2,1.2,0,0,0,0-1.7l-6.8-5.4-.9,2.1L59.8,43c1.6-.2,1.6-2.7,0-2.5Z"/><path class="c" d="M18.5,76.9l7.8,7.9a1.5,1.5,0,0,0,1.8,0,1.4,1.4,0,0,0,0-1.8l-7.9-7.8a1.2,1.2,0,0,0-1.7,1.7Z"/><path class="c" d="M69.4,19.5l9.1,9a1.2,1.2,0,0,0,1.7-1.8l-9-9c-1.1-1.1-2.9.6-1.8,1.8Z"/><path class="c" d="M78,18.1l-8.1,8.2a1.3,1.3,0,0,0,0,1.8,1.4,1.4,0,0,0,1.7,0l8.2-8.2a1.3,1.3,0,0,0,0-1.8,1.5,1.5,0,0,0-1.8,0Z"/></svg>