<svg xmlns="http://www.w3.org/2000/svg" viewBox="0 0 100 100"><defs><style>.a{fill:#9bc6c5;}.b{fill:none;stroke:#fff;stroke-miterlimit:10;stroke-width:2px;}</style></defs><title>bidy</title><path class="a" d="M53.9,99.4s32.8-8.2,28-44.2c0,0-4.1-32.7-27.3-34.9h.3c-23.2,2-27.6,34.7-27.6,34.7C22.1,91,54.9,99.6,54.9,99.6"/><line class="b" x1="50.1" x2="50.1" y2="9.4"/><line class="b" x1="66.9" y1="1.4" x2="63.1" y2="10.5"/><line class="b" x1="37.3" y1="11" x2="33.1" y2="1.9"/><path class="b" d="M52.7,19.4s27.6,35.8-3.2,69h0c-30.8-33.2-3.2-69-3.2-69"/><path class="b" d="M46.3,17.8s-57.2,38.4,3.6,76.6c60.8-38.2,3.6-76.6,3.6-76.6l-.8-.4"/><path class="b" d="M51,23.8V39.9s6.2,10.9,5.9,15-8.4,13.4-5.7,16.5,3.6,12.7-1.8,15.2h.1c-5.4-2.5-4.4-12.2-1.8-15.2S42.2,59.1,42,54.9s5.9-15,5.9-15V23.8"/><ellipse class="b" cx="49.6" cy="19" rx="3.3" ry="5.3"/></svg>