<svg xmlns="http://www.w3.org/2000/svg" viewBox="0 0 100 100"><defs><style>.a{fill:#5d8b81;}.b{fill:#fff;}.c{fill:none;stroke:#fff;stroke-miterlimit:10;stroke-width:2px;}</style></defs><title>BODY2</title><path class="a" d="M25.7,49c8.9,2.8,6.1,14.7,4.3,20.9-3.1,10.4-8.9,21,4.3,26.7,7.6,3.3,15.6,3,20.5-4.6,6-9.3,3.9-19.7,1.9-29.8-1.3-6.3-4-17,1.3-22,13.4,9.7,6.2,25.6,11.5,38.6,1.8,4.2,4.3,9.7,9.9,9.6s9.9-9.6,8.9-15.1c-.5-2.6-1.2-3.2-1.1-5.8,0-6.1,1.3-11.5.2-17.7C85.9,40.5,81.3,30.7,74.6,24S59.8,11.3,50.4,14.1c-3,.9-4.7,2.6-6.8,4.6-.6.6-.5,2.2-.9,2.5s-1.7-.1-2.6.3c-7.9,3.1-12.7,5.2-14.7,14.7-.6,2.9,1.9,10.6.3,12"/><path class="b" d="M27.9,16.9l-8-6.9a1.1,1.1,0,0,0-1.4,0,1,1,0,0,0,0,1.4l8,6.9a1,1,0,1,0,1.4-1.4Z"/><path class="b" d="M30.8,1.9l1.9,11.6a.9.9,0,0,0,1.2.7.9.9,0,0,0,.7-1.2L32.8,1.3A1.1,1.1,0,0,0,31.5.6a1.3,1.3,0,0,0-.7,1.3Z"/><path class="b" d="M11.5,26.1H23.4a1,1,0,0,0,0-2H11.5c-1.2-.1-1.3,1.9,0,2Z"/><path class="c" d="M19.2,42s11.7,4.1,8,12.3-15.5,32.9,10.3,34S50.3,58.5,50.1,54s-1.6-18.4,3-22.6a43.1,43.1,0,0,1,8.3,34.8c-4,20.6,10.8,17.5,10.8,17.5s16.7-5.9,11.6-21.5c0,0,4.9-38.2-23-54.8"/><path class="c" d="M36.6,19.4s9.7,6.4,3.8,18.9S27.6,65.4,28,71.7s6.4,12.2,16,7.2S49.6,63,45.2,60.8s-12.7,1.3-14.6,3.5l-1.9,2.2"/><path class="c" d="M61.2,67.3s10.7-6.7,22.6-5.1"/><path class="c" d="M70.4,83.9a12.8,12.8,0,0,0,2.8-8.3"/><path class="c" d="M73.2,62.7S71.5,29,55.8,17"/></svg>