<svg xmlns="http://www.w3.org/2000/svg" viewBox="0 0 100 100"><defs><style>.a{fill:#b7ccc6;}.b{fill:none;stroke:#fff;stroke-miterlimit:10;stroke-width:2px;}</style></defs><title>BODY2</title><path class="a" d="M50.9,7c-8-2.2-16.1,4.1-18.8,11.4s1.2,13.1-6.2,18.5-12.1,8.7-9.5,18.4c2.1,7.9,10.9,9.8,12.2,18.4s1.7,15.9,9.2,20.6a16.1,16.1,0,0,0,8.3,2.2c4.6.1,6.1-1.1,10.1.2,5.5,1.8,8.3,3.1,14.1.1S80,87.9,80.9,80.3a29.1,29.1,0,0,1,4.9-13.9c3.3-5.3,7.5-11,7.6-17.6.2-11.1-12-16.8-15.2-26.7-2.1-6.7-3.7-11-11.1-12.9-2.9-.8-5.9-.6-8.7-1.4s-3.5-2.5-6.5-1.3"/><circle class="b" cx="50.6" cy="9.4" r="8.1"/><path class="b" d="M42.5,9.4s-33.2,39,8.1,86c0,0-14.6,7.3-22.2-4.6s-1.5-18-4.6-21.8S5.6,48.7,15.4,39.1s10.3-9.3,10.7-15.6S24.5,4,43.9,4"/><path class="b" d="M58.2,9.4s33.3,39-8,86c0,0,14.5,7.3,22.1-4.6S73.9,72.8,77,69s18.1-20.3,8.4-29.9S75,29.8,74.7,23.5,76.3,4,56.9,4"/><path class="b" d="M50.8,37S30.4,40,39.3,79.9"/><path class="b" d="M50.2,37s20.4,3,11.5,42.9"/></svg>