<svg xmlns="http://www.w3.org/2000/svg" viewBox="0 0 100 100"><defs><style>.a{fill:#b7ccc6;}.b,.c,.d,.e{fill:none;stroke-miterlimit:10;stroke-width:2px;}.b,.e{stroke:#fff;}.c,.d{stroke:#b7ccc6;}.d,.e{stroke-dasharray:5.02 5.02;}</style></defs><title>features 2</title><path class="a" d="M15.9,93s13.2-5,9.3-13.5-9.2-.1-9.2-.1h.7s-5.1-8.5-9.1-.1,9,13.7,9,13.7"/><path class="b" d="M12.5,91.2s13.2-4.9,9.3-13.5-9.1-.1-9.1-.1h.7s-5.1-8.6-9.2-.1,9,13.6,9,13.6"/><path class="a" d="M15.9,93s13.2-5,9.3-13.5-9.2-.1-9.2-.1h.7s-5.1-8.5-9.1-.1,9,13.7,9,13.7"/><path class="b" d="M12.5,91.2s13.2-4.9,9.3-13.5-9.1-.1-9.1-.1h.7s-5.1-8.6-9.2-.1,9,13.6,9,13.6"/><path class="a" d="M85,22.9s13.2-5,9.3-13.5-9.2-.1-9.2-.1h.7S80.7.8,76.7,9.2s9,13.7,9,13.7"/><path class="b" d="M82,20.7s13.2-4.9,9.3-13.4-9.2-.1-9.2-.1h.7s-5.1-8.5-9.1-.1,9,13.7,9,13.7"/><line class="c" x1="77.1" y1="22.7" x2="74.6" y2="22.7"/><path class="d" d="M69.6,22.7H17.8s-28.8,17.4,0,35.7H78.2s30.5,15.5,0,35.8h-44"/><line class="c" x1="31.7" y1="94.2" x2="29.2" y2="94.2"/><line class="b" x1="75.7" y1="18.9" x2="73.2" y2="18.9"/><path class="e" d="M68.2,18.9H16.4s-28.8,17.3,0,35.7H76.8s30.4,15.5,0,35.7h-44"/><line class="b" x1="30.2" y1="90.3" x2="27.7" y2="90.3"/></svg>