<svg xmlns="http://www.w3.org/2000/svg" viewBox="0 0 100 100"><defs><style>.a{fill:#d787ac;}.b{fill:#fff;}</style></defs><title>features 2</title><path class="a" d="M52.5,8.4A68.9,68.9,0,0,0,21,55.1a45.7,45.7,0,0,0,0,16.5A34.6,34.6,0,0,0,43.8,97.1a34.8,34.8,0,0,0,33.4-7.2,39.8,39.8,0,0,0,7.1-8.7c5.7-9.5,7.8-21.7,3.4-31.8-1.9-4.3-4.8-8.1-7.7-11.8C74.7,30.9,69.2,24.4,63.7,18c-3.1-3.5-6.3-7.1-10.5-9"/><path class="b" d="M45.3,1.4A70.6,70.6,0,0,0,16.4,36.7c-2.9,8-4.6,16.8-3.8,25.2a35.4,35.4,0,0,0,9.2,20.7A34.4,34.4,0,0,0,40.9,93.4a37,37,0,0,0,22.5-3C78.1,83.2,87.2,65,84.1,49c-1.7-8.9-7.9-15.9-13.5-22.7-3-3.8-6.2-7.5-9.4-11.3a82.1,82.1,0,0,0-9-9.7,24.1,24.1,0,0,0-5-3.3c-1.4-.7-2.7,1.5-1.2,2.2,3.5,1.7,6.3,4.5,9,7.4l8.7,10.2c2.9,3.5,5.8,7,8.6,10.6a57.5,57.5,0,0,1,7.2,10.5c7,14.4,0,33.6-12.6,42.5s-28.8,8.1-40-1.4a33.2,33.2,0,0,1-11-17.4c-2-8.1-.8-16.8,1.5-24.7A67,67,0,0,1,42.1,6.6a42.7,42.7,0,0,1,4.4-3c1.4-.9.1-3-1.2-2.2Z"/><path class="b" d="M29.6,43c-3.8,7.8-5,17.2-1.5,25.4s9.3,12.4,16.8,13.5c1.6.3,2.3-2.1.7-2.4-6.8-1-12.4-5.9-15.2-12.1s-2.1-16,1.3-23.1c.7-1.5-1.4-2.7-2.1-1.3Z"/><path class="b" d="M58,78.4h-.9l-.4.3-.3.4c0,.2-.1.3-.1.5V80a.9.9,0,0,0,.3.6l.2.2h1.6l.4-.2.2-.4a.9.9,0,0,0,.1-.5v-.3a3.3,3.3,0,0,0-.3-.6l-.3-.2-.6-.2Z"/></svg>