<svg xmlns="http://www.w3.org/2000/svg" viewBox="0 0 100 100"><defs><style>.a{fill:#af88ad;}.b{fill:none;stroke:#fff;stroke-miterlimit:10;stroke-width:2px;}.c{fill:#fff;}</style></defs><title>FEATURES</title><rect class="a" x="8.5" y="7.7" width="47.1" height="84.74" rx="9.1"/><path class="a" d="M86.3,20.5H100V34.9s-.1,12.3-12.8,12.3h.6C75.1,47.2,75,34.9,75,34.9V20.5H88.8"/><path class="a" d="M56.4,44.4c8.2,2.3,9.9,11.9,9.5,19.1s-3.1,17.5.4,25.8c2.7,6.3,9.3,11,16.3,8.6a10.4,10.4,0,0,0,6.5-7.3c1.1-4,1.2-8.5,1.4-12.7a192.5,192.5,0,0,0-.8-32.2c-.2-1.6-2.7-1.6-2.5,0a203.2,203.2,0,0,1,1.1,27c-.2,4.6-.5,9.1-1,13.6s-1.2,7.3-4.6,8.9a9.7,9.7,0,0,1-8.9-.6c-3-1.7-4.9-5-5.9-8.2-2.5-8.3.5-17,.5-25.4S65.3,44.3,57.1,42c-1.6-.5-2.2,1.9-.7,2.4Z"/><rect class="b" x="1.9" y="2" width="47.1" height="84.74" rx="8.4"/><path class="b" d="M79.7,14.7H93.5V29.2s-.2,12.3-12.8,12.3h.6c-12.7,0-12.8-12.3-12.8-12.3V14.7H82.2"/><path class="c" d="M23.7,23.7A106.6,106.6,0,0,1,11.4,47.1a1.2,1.2,0,0,0,1,1.9l8-.3a3.7,3.7,0,0,1,1.8-.1c-.2-.3-.3-.3-.3.1v1l-.3,3.6L20.1,68.8c-.2,1.3,1.7,1.5,2.3.6,6-9.3,11.8-18.7,17.3-28.3a1.3,1.3,0,0,0-1-1.9l-6.8-.7L29,38.2H28c-.2-.1-.3-.1-.1,0s.1-.8.1-1.1a31,31,0,0,0-1.4-12.1c-.5-1.6-2.9-.9-2.4.6a31.2,31.2,0,0,1,1.4,7.4c0,1.2,0,2.4-.1,3.7a5.7,5.7,0,0,0,.2,2.6c.8,1.8,3.6,1.5,5.2,1.7l7.8.8-1.1-1.9c-5.5,9.6-11.3,19.1-17.4,28.3l2.4.7,1.7-18.2c.1-1,.4-2.4-.1-3.4a2.3,2.3,0,0,0-2.3-1.1c-3.1,0-6.3.3-9.5.4l1.1,1.9a107.7,107.7,0,0,0,12.6-24c.5-1.5-1.9-2.2-2.4-.7Z"/><path class="c" d="M49,40.7c8.2,2.3,9.9,11.9,9.5,19.2s-3.1,17.4.5,25.7c2.6,6.3,9.2,11,16.2,8.6a10.2,10.2,0,0,0,6.5-7.3c1.1-4,1.2-8.5,1.4-12.7A182.4,182.4,0,0,0,82.3,42c-.2-1.6-2.7-1.6-2.5,0a203.2,203.2,0,0,1,1.1,27c-.2,4.6-.5,9.1-1,13.6s-1.2,7.3-4.6,8.9a9.5,9.5,0,0,1-8.8-.6c-3.1-1.7-5-5-6-8.2-2.4-8.3.5-17,.5-25.4s-3.1-16.7-11.3-19c-1.6-.5-2.2,1.9-.7,2.4Z"/><path class="c" d="M73.2,6.6v7.1a1.2,1.2,0,0,0,1.2,1.2,1.2,1.2,0,0,0,1.3-1.2V6.6a1.2,1.2,0,0,0-1.3-1.2,1.2,1.2,0,0,0-1.2,1.2Z"/><path class="c" d="M86.3,6.6v7.1a1.3,1.3,0,0,0,1.3,1.2,1.2,1.2,0,0,0,1.2-1.2V6.6a1.2,1.2,0,0,0-1.2-1.2,1.2,1.2,0,0,0-1.3,1.2Z"/></svg>