<svg xmlns="http://www.w3.org/2000/svg" viewBox="0 0 100 100"><defs><style>.a,.b{font-size:38.79px;font-family:BOUNCY;}.a,.c{fill:#e0b4c8;}.b,.d{fill:#fff;}</style></defs><title>BODY2</title><text class="a" transform="translate(21.2 30.3)">G</text><text class="b" transform="translate(19.5 28.1)">G</text><path class="c" d="M42.1,32A24.7,24.7,0,0,0,36,36.5c-1.6,1.9-3.3,3.1-4.9,4.9s-.3.6-.6,1l-.4.4a10.2,10.2,0,0,0-1.2,6.6,12.9,12.9,0,0,0,.5,2.1c.2.6.6,1.1.8,1.6-3.7,3.2-3.6,8.2-3.3,12.5a8.6,8.6,0,0,0,.5,3.2c.3.8.6,1.4.8,2.1,3.3,5.7,6.9,10.6,10.7,16.1,1.5,2.1,2.9,3.9,4.6,5.9a43.2,43.2,0,0,0,5.4,5l1.4.9a6.6,6.6,0,0,0,5.3.3c2.7-.9,4.7-2.9,6.6-5,.3-.2.4-.6.6-.9,3.1-3.5,4.7-7.4,6-11.6l.6-.9c.1-.1,0-.3.1-.5a14.6,14.6,0,0,1,3.9-3.5,16.8,16.8,0,0,0,4.7-4.9l1-1.9a16.6,16.6,0,0,0-.8-15c-.8-1.2-1.8-2-2.7-3.3s-.6-.8-.3-1.2c2.2-2.8,3-6.1,1.5-9.2a8.7,8.7,0,0,0-2.3-2.7c-1.3-1-2.8-1.7-4.2-2.7s-1.9-1.6-3-2.3A24.2,24.2,0,0,0,42.1,32Z"/><path class="c" d="M37.5,34.9a17,17,0,0,0,3-3,29.7,29.7,0,0,0,5.7-12.7c.3-2.3.4-4.6,1.4-6.7S50.5,8.4,53,8.4a6.3,6.3,0,0,1,5.5,3.3,17.6,17.6,0,0,1,1.8,5.9,31.4,31.4,0,0,0,3.4,9.9c1.7,2.8,4.2,5.1,6.1,7.9"/><path class="d" d="M35.2,28a26.8,26.8,0,0,0-5.8,4.2c-1,1-1.8,1.9-2.8,2.8a22.9,22.9,0,0,0-2.7,2.7A11.3,11.3,0,0,0,23,50.5V49.3c-4,3.5-3.9,8.7-3.6,13.6.1,3.1,1.6,5.7,3.1,8.2s3.6,5.5,5.5,8.2c3.6,5.2,7.1,10.5,11.9,14.8,2.2,1.9,4.6,3.5,7.5,3.3s5.1-1.9,7.1-3.7A35,35,0,0,0,63,79.9a9.6,9.6,0,0,1,1.9-3.4,29.1,29.1,0,0,1,3.3-2.6,16.5,16.5,0,0,0,5.2-6.2c2.3-5.2,2.4-11.5-.7-16.4a25.1,25.1,0,0,0-2.6-3.1c-.4-.6-.3-.5,0-1l.6-.9a13.6,13.6,0,0,0,1-2.1,8.7,8.7,0,0,0-1.1-7.7c-1.9-2.6-5.2-3.8-7.6-5.8A25.6,25.6,0,0,0,35.2,28c-1.1.6-.1,2.3,1,1.7a24.2,24.2,0,0,1,15.9-2.1,23.2,23.2,0,0,1,7.6,3.2,34,34,0,0,1,3,2.3c1.2.9,2.5,1.6,3.8,2.4s3.9,3.6,3.6,6.5a8.2,8.2,0,0,1-1.3,3.7c-.7,1-1.4,1.8-.7,3a15.6,15.6,0,0,0,2.3,2.8,13.1,13.1,0,0,1,2,3.9,16.3,16.3,0,0,1,.4,7.9,16,16,0,0,1-3.7,7.2c-1.7,1.8-3.9,2.8-5.6,4.6s-2.2,3.7-3,5.8a26.1,26.1,0,0,1-3.7,7c-2.7,3.8-7.5,9.6-12.8,6.7a26,26,0,0,1-6.1-5.4,72.5,72.5,0,0,1-5.4-7c-1.9-2.8-3.8-5.4-5.6-8.2s-3.8-5.5-4.9-8.6-.8-5.3-.6-7.8a9.9,9.9,0,0,1,3.1-6.9.9.9,0,0,0,.2-1.2,9.4,9.4,0,0,1,1.7-11.6c3.1-3,6-6.1,9.8-8.2C37.3,29.1,36.3,27.4,35.2,28Z"/><path class="d" d="M31.5,32.6c3.4-2.4,5.7-6.2,7.3-10a20.2,20.2,0,0,0,1.8-5.9c.4-2,.5-4.1,1.1-6.1a6.5,6.5,0,0,1,3.9-4.2c2-.6,4.1.6,5.3,2.2a12.9,12.9,0,0,1,1.9,5.8,49.1,49.1,0,0,0,1.7,6.3A22.7,22.7,0,0,0,57.9,27c1.5,1.9,3.2,3.7,4.6,5.7s2.4.1,1.7-1c-2.7-3.9-6.2-7-7.8-11.6a36.5,36.5,0,0,1-1.7-6.7,13.8,13.8,0,0,0-2.3-6.1c-2.3-3.1-6.5-4.1-9.7-1.5s-3.3,7.4-4.2,11.4-3.8,10.6-8,13.7c-1,.8,0,2.5,1,1.7Z"/><path class="d" d="M45.1,31.8A30.9,30.9,0,0,0,36.3,41c-2.3,3.6-4.8,7.8-5.6,12.1-1.6,8.1,1,17,5.3,23.9a40.5,40.5,0,0,0,8.5,9.5c.6.4,1.2,1.1,2,1.2s1.7-.8,2.4-1.3a29,29,0,0,0,4.9-5,40.7,40.7,0,0,0,6.5-11.7c1.6-4.4,2.7-9.3,2.2-14S59.7,46,56.8,41.9A42.5,42.5,0,0,0,46.6,31.8c-1.1-.7-2.1,1-1.1,1.7A36.6,36.6,0,0,1,59.7,52c2.5,8.2-.6,17.8-5.1,24.8A27.4,27.4,0,0,1,51,81.6a13.4,13.4,0,0,1-2,2.1c-.5.4-1.9,2-2.5,1.9l-1.1-.9-.9-.8-2.2-2.1a40.2,40.2,0,0,1-3.7-4.5,34.9,34.9,0,0,1-6.3-21c.3-4.7,2.5-9,4.9-12.9a29.5,29.5,0,0,1,9-9.9c1-.7,0-2.4-1.1-1.7Z"/><path class="d" d="M45.3,46.5c-5.3,1-6.2,6.6-6.8,11.1s-.9,11.2,1.5,16,7.6,5.9,10.5,1.8,3.4-10.1,3.1-15-2-11.6-7.4-13.9c-1.2-.5-2.2,1.2-1,1.7,4,1.8,5.5,5.8,6.1,9.8a27.4,27.4,0,0,1-.9,12.7c-.6,1.7-1.3,4.3-3.3,4.8a4.8,4.8,0,0,1-5-2.4c-2.2-3.7-2.1-8.6-1.8-12.7s.3-11,5.5-12c1.3-.3.7-2.2-.5-1.9Z"/><path class="d" d="M39.7,58.9c.9-.3,1.8-.9,2.7-1.1a9.2,9.2,0,0,1,2.8-.5,22.4,22.4,0,0,1,6.3,1,1,1,0,0,0,.5-2,31,31,0,0,0-6.8-1,11.2,11.2,0,0,0-3.1.5c-1,.3-1.9.8-2.9,1.2a1,1,0,0,0-.7,1.2.9.9,0,0,0,1.2.7Z"/></svg>