<svg xmlns="http://www.w3.org/2000/svg" viewBox="0 0 100 100"><defs><style>.a{fill:#e0b4c8;}.b{fill:#fff;}.c{fill:none;stroke:#fff;stroke-miterlimit:10;stroke-width:2px;}</style></defs><title>features 2</title><path class="a" d="M13.9,18.5A28.6,28.6,0,0,0,14,29.4a18.7,18.7,0,0,0,4,8.4,31.2,31.2,0,0,0,7.6,6.4c3.1,2,6.3,3.6,9.4,5.6A27.1,27.1,0,0,1,42.3,56c1.9,2.6,3.1,5.9,2.2,9.1s-3.2,5.5-5.2,7.9-3.9,5-4.4,8.1a13.6,13.6,0,0,0,2.3,9.4A23.7,23.7,0,0,0,44,97.1l2.3,1.3a41.9,41.9,0,0,1,3-9.7,21.8,21.8,0,0,1,5.2-7.3,25.8,25.8,0,0,1,8.1-4.9l9.7-4a31.4,31.4,0,0,0,8.2-5.1c2.3-2.1,3.8-5,3.2-8.2s-3.2-5.3-4.7-8a12.5,12.5,0,0,1-.9-9.1,24.2,24.2,0,0,1,4.4-8.6A74.8,74.8,0,0,1,89,26.1l1.8-1.8"/><ellipse class="a" cx="53.5" cy="19.2" rx="39.7" ry="13.7"/><path class="b" d="M11.3,44.8A8,8,0,0,0,6,52.2c0,3.8,2.6,6.3,5.7,8a52.3,52.3,0,0,0,22.2,6.1,74.1,74.1,0,0,0,13.3-.6c1.6-.1,1.6-2.6,0-2.5a64,64,0,0,1-25.4-1.4A40.7,40.7,0,0,1,16,59.6a22.9,22.9,0,0,1-5.5-3.1A5.5,5.5,0,0,1,12,47.2c1.5-.5.8-2.9-.7-2.4Z"/><path class="b" d="M48.5,49.2c4.8.1,9.5.1,14.3-.1a107,107,0,0,0,12.5-1c6.9-1.1,15-5.3,14.7-13.4a1.3,1.3,0,0,0-2.5,0c.3,7.6-8.3,10.5-14.5,11.2a166.8,166.8,0,0,1-24.5.8,1.3,1.3,0,0,0,0,2.5Z"/><path class="b" d="M6,14.9C5,21.8,5.6,29,9.9,34.7s11,8.7,17,12.4S39.5,56,36,63c-1.3,2.8-3.6,5-5.5,7.4a16.7,16.7,0,0,0-3.6,8.8C26.6,86.7,32.8,93,39,96.3a1.3,1.3,0,0,0,1.8-.8c1.5-6.4,3.5-13,8.8-17.3a34.2,34.2,0,0,1,8.9-4.6c3.2-1.3,6.3-2.5,9.3-4,5-2.5,11.1-6.5,10.6-12.9-.2-3-2-5.2-3.7-7.5a11.7,11.7,0,0,1-2.3-8.8c1.3-7.6,7.6-13.3,12.7-18.5,1.1-1.2-.7-2.9-1.8-1.8-4.6,4.8-9.7,9.6-12.2,15.9a16,16,0,0,0-1,9.4c.7,3.1,2.8,5.2,4.4,7.8a7.2,7.2,0,0,1,.1,8.3c-1.8,2.6-4.9,4.3-7.6,5.7-6,3-12.8,4.5-18.2,8.5S40,87.6,38.4,94.8l1.9-.7C34.7,91.2,29,85.7,29.4,78.9s7-10,9.2-15.6-1.7-12.1-6.5-15.7S20.1,41,15,36.5a19.9,19.9,0,0,1-5.9-8.7,26.6,26.6,0,0,1-.7-12.2c.3-1.6-2.2-2.3-2.4-.7Z"/><ellipse class="c" cx="46.9" cy="16" rx="39.7" ry="13.7"/></svg>