<svg xmlns="http://www.w3.org/2000/svg" viewBox="0 0 100 100"><defs><style>.a{fill:#af88ad;}.b{fill:none;stroke:#fff;stroke-miterlimit:10;stroke-width:2px;}</style></defs><title>BODY2</title><path class="a" d="M52.6,4.7c-5.8,2.2-9.3,8.5-11.4,14.2-1,2.8-1.8,5-.3,7.6s1.7,1.8,2,4-.2,5.3,0,8c.5,6.1.6,12.3.5,18.5,0,2.6.3,8.9-1.8,11s-6.5,2.1-8.8,6-4.1,11-3.3,15.3c1.7,9.8,16.9,14.5,22.8,5.8,4.5,3.3,8.4,5.4,14,3.8s9.6-4.9,11-9.9.8-11.3-3.3-15.2a24.5,24.5,0,0,0-6.2-4.3c-1.2-.6-3.2-.9-3.9-2.2s-.1-4.6-.1-6V53.1c0-5.4-.3-10.8-.3-16.2,0-2-.8-6.2-.1-8s4.1-3.3,4.2-6.9S62.9,11.4,60.2,8.3s-4.4-3.8-6.7-3"/><path class="b" d="M50,23.2s-7.8,6.2-12.5,2.5-1.3-11.1.1-13.4S44.8,2.5,48.5,2.1a9.9,9.9,0,0,1,9.6,4.2,116.1,116.1,0,0,1,6.5,10.4s3.3,5.3-2.5,9.9S50,23.2,50,23.2Z"/><path class="b" d="M45.3,82.3s2.2,16.5,13.8,14.9,15.6-10,14-17.1S65.2,69.3,60.5,69.9V27.5"/><path class="b" d="M49.5,57.2S49.9,69.3,39.2,70,24.7,79.9,26.7,86.6s8.9,16.4,24.7,8.5"/><line class="b" x1="39.2" y1="70" x2="39.2" y2="26.7"/><line class="b" x1="50" y1="9.5" x2="50" y2="1.9"/></svg>