<svg xmlns="http://www.w3.org/2000/svg" viewBox="0 0 100 100"><defs><style>.a{fill:#b7ccc6;}.b{fill:#fff;}</style></defs><title>bidy</title><path class="a" d="M7.3,63.1a60.9,60.9,0,0,0,7.2,28.2c.4.7.7,1.4,1.1,2H45.4c1-3,1.5-6.4,2.3-9.4,2-7.9,1.4-16.4,3.6-24.1,2.4,10.9-2.1,23.7,4.6,33.5H94c1.5-4.2,1.9-9.6,2.7-12.7,2.5-11,2.3-22.4-2.2-32.9-2-4.6-1.6-5.6-1.6-11.1s-1.4-11.6-3-17.5a33.5,33.5,0,0,0-3.7-9.5h-72c-4,7.6-4.9,17.1-4.8,25.3,0,3.8.8,6.9.1,10.4A81.8,81.8,0,0,0,7.3,63.1Z"/><path class="b" d="M44.6,35c.1,6.9.8,14.6,5.4,20.1s12.6,6.4,19.4,5.8c3.6-.2,8-1,10.3-4,.8-1-.6-2.4-1.4-1.4s-5.3,3.1-8.2,3.4a41.3,41.3,0,0,1-9.3-.2,14.9,14.9,0,0,1-8.7-4.2,18.9,18.9,0,0,1-4.3-8.3A51.9,51.9,0,0,1,46.6,35a1,1,0,0,0-2,0Z"/><path class="b" d="M13.3,56.9c2.2,2,5.3,2.9,8.1,3.5a30.3,30.3,0,0,0,10.4.6,21,21,0,0,0,9.6-3.7A17.6,17.6,0,0,0,44.8,54c1-1.4,1.5-3.2,2.6-4.5s-.5-2.4-1.4-1.4a23.6,23.6,0,0,0-2.2,3.8,13,13,0,0,1-2.9,3.3A19.3,19.3,0,0,1,32.1,59a28.1,28.1,0,0,1-9.6-.4c-2.7-.6-5.7-1.3-7.7-3.2s-2.4.6-1.5,1.5Z"/><path class="b" d="M45.7,51.5a133.9,133.9,0,0,1-1.8,20c-.5,2.9-.9,5.8-1.3,8.7a39.5,39.5,0,0,1-1.7,9.1l1.9.6c.1-.2.1-.4.2-.6a1,1,0,0,0-1.9-.6l-.2.6a1,1,0,0,0,1.9.6,38,38,0,0,0,1.7-8.8c.4-3.2.9-6.4,1.4-9.6a133.9,133.9,0,0,0,1.8-20,1,1,0,0,0-2,0Z"/><path class="b" d="M47.3,53.2c.4,1.4,0,3.2,0,4.6a39.3,39.3,0,0,0,.2,4.9c.3,3.3.7,6.5,1.2,9.7s.9,6.4,1.5,9.6a23.4,23.4,0,0,0,.9,3.8,7.4,7.4,0,0,1,.4,1.4l.2.6c.2.6-.2.4.4-.2-1,.9.4,2.3,1.4,1.4s-.4-3.6-.7-4.7a96,96,0,0,1-2-10.7c-.5-3.6-1-7.2-1.3-10.9a43.5,43.5,0,0,1-.2-5.1c0-1.6.4-3.4-.1-4.9s-2.3-.7-1.9.5Z"/><path class="b" d="M85.3,8.7c-.1,0-.2-.2-.1.1s.3.3.3.4a6.4,6.4,0,0,1,.8,1.9,42.8,42.8,0,0,1,1.2,5.4,78,78,0,0,1,1.3,9.7,59.1,59.1,0,0,1-.1,10.3,9.8,9.8,0,0,0,.1,4.5c.5,1.5,1.3,3,1.9,4.5A41.4,41.4,0,0,1,93.3,56a73.6,73.6,0,0,1,0,10.5A56,56,0,0,1,91.6,78c-.5,1.8-1.1,3.5-1.7,5.3A24.2,24.2,0,0,1,88,88.4c-.7,1.1,1.1,2.1,1.7,1L90,89c.7-1.1-1.1-2.1-1.7-1l-.3.4,1.7,1A14.9,14.9,0,0,0,91.4,85l1.8-5.1A47.1,47.1,0,0,0,95,69.4c.7-7.5.8-15-1.6-22.2-.5-1.6-1.1-3.1-1.7-4.7a12.8,12.8,0,0,1-1.1-2.4,8.2,8.2,0,0,1,0-2.7,69.8,69.8,0,0,0,.2-11.2,73.6,73.6,0,0,0-1.4-10.5,33.2,33.2,0,0,0-1.6-6.2c-.4-1-1.1-2.9-2.5-2.8s-1.3,2.1,0,2Z"/><path class="b" d="M9.2,7A58.9,58.9,0,0,0,3.8,23.8a48.6,48.6,0,0,0-.6,8.5,14.2,14.2,0,0,0,.6,4.2c.3,1.2,1,2.3.8,3.5s-.9,2.3-1.2,3.4a32.5,32.5,0,0,0-1.1,4.2,44.5,44.5,0,0,0-.8,8.1A65.9,65.9,0,0,0,3.2,72.3a76,76,0,0,0,3,9.2c.7,1.5,1.3,3,2,4.4a15.1,15.1,0,0,1,1.2,2l.3-1h1.2c-.9-.9-2.4.5-1.4,1.4l.4.3a.9.9,0,0,0,1.2-.2c.9-1.1-1-3-1.5-4a61.9,61.9,0,0,1-3.2-8.1A63.6,63.6,0,0,1,3.5,59.4,43.4,43.4,0,0,1,5.6,43a13.1,13.1,0,0,0,1-3.2,8.1,8.1,0,0,0-.8-3.4c-.9-2.9-.7-6-.4-9A56.3,56.3,0,0,1,10.9,8.1C11.4,6.9,9.7,5.9,9.2,7Z"/><path class="b" d="M19.2,12.9a14.2,14.2,0,0,0-.8,1.8,8.1,8.1,0,0,0-.7,2.2,1.1,1.1,0,0,0,.3.7,1.1,1.1,0,0,0,.7.3,1.1,1.1,0,0,0,.8-.3,1.4,1.4,0,0,0,.2-.7h.1v.3c.1-.3.1-.6.2-.9s.1-.3.2-.4,0-.2.1-.2-.1.2,0-.1.5-1,.7-1.6a1.1,1.1,0,0,0,.2-.8l-.5-.6a1.1,1.1,0,0,0-1.4.4Z"/><path class="b" d="M15.8,25a27.7,27.7,0,0,0-1.2,8.5c0,.8.1,1.6.1,2.5v1.8h0c-.1.1.1-.2.2-.2s.4,2.3,1.4,1.4.4-1.5.4-2.2-.1-1.8-.1-2.8a23.5,23.5,0,0,1,1.1-8.3c.3-1.3-1.6-1.8-1.9-.6Z"/></svg>