<svg xmlns="http://www.w3.org/2000/svg" viewBox="0 0 100 100"><defs><style>.a{fill:#d787ac;}.b{fill:#fff;}.c{fill:none;stroke:#fff;stroke-miterlimit:10;stroke-width:2px;}</style></defs><title>BODY2</title><ellipse class="a" cx="27.7" cy="47.8" rx="21.9" ry="18.5"/><ellipse class="a" cx="76.9" cy="47.8" rx="21.9" ry="18.5"/><path class="b" d="M22.6,46.7A2.7,2.7,0,0,1,19.9,44a2.8,2.8,0,0,1,2.6-2.8,2.8,2.8,0,1,1,.1,5.5Z"/><path class="b" d="M76.3,44a2.7,2.7,0,1,1-5.3-.1,2.8,2.8,0,0,1,2.7-2.7A2.8,2.8,0,0,1,76.3,44Z"/><circle class="c" cx="22.6" cy="43.9" r="7"/><circle class="c" cx="73.6" cy="43.9" r="7"/><path class="c" d="M51.4,47.7s20.2,29.8,42.2-.2"/><path class="c" d="M1.5,47.7s20.2,29.8,42.2-.2"/></svg>